<svg width="800" height="600" viewBox="0 0 800 600" fill="none" xmlns="http://www.w3.org/2000/svg">
<rect width="800" height="600" fill="#C4C4C4"/>
<rect x="17" y="207" width="354" height="49" rx="24.5" fill="white"/>
<path d="M17 437.5C17 423.969 27.969 413 41.5 413H346.5C360.031 413 371 423.969 371 437.5V437.5C371 451.031 360.031 462 346.5 462H41.5C27.969 462 17 451.031 17 437.5V437.5Z" fill="white"/>
<path d="M426 437.5C426 423.969 436.969 413 450.5 413H755.5C769.031 413 780 423.969 780 437.5V437.5C780 451.031 769.031 462 755.5 462H450.5C436.969 462 426 451.031 426 437.5V437.5Z" fill="white"/>
<rect x="426" y="207" width="354" height="49" rx="24.5" fill="white"/>
<rect x="223" y="277" width="354" height="49" rx="24.5" fill="white"/>
<path d="M575.094 445H572.832L564.242 431.852V445H561.98V427.938H564.242L572.855 441.145V427.938H575.094V445ZM586.578 443.746C585.734 444.738 584.496 445.234 582.863 445.234C581.512 445.234 580.48 444.844 579.77 444.062C579.066 443.273 578.711 442.109 578.703 440.57V432.32H580.871V440.512C580.871 442.434 581.652 443.395 583.215 443.395C584.871 443.395 585.973 442.777 586.52 441.543V432.32H588.688V445H586.625L586.578 443.746ZM584.82 427H587.445L584.305 430.445H582.559L584.82 427ZM594.031 432.32L594.09 433.727C595.02 432.633 596.273 432.086 597.852 432.086C599.625 432.086 600.832 432.766 601.473 434.125C601.895 433.516 602.441 433.023 603.113 432.648C603.793 432.273 604.594 432.086 605.516 432.086C608.297 432.086 609.711 433.559 609.758 436.504V445H607.59V436.633C607.59 435.727 607.383 435.051 606.969 434.605C606.555 434.152 605.859 433.926 604.883 433.926C604.078 433.926 603.41 434.168 602.879 434.652C602.348 435.129 602.039 435.773 601.953 436.586V445H599.773V436.691C599.773 434.848 598.871 433.926 597.066 433.926C595.645 433.926 594.672 434.531 594.148 435.742V445H591.98V432.32H594.031ZM618.301 445.234C616.582 445.234 615.184 444.672 614.105 443.547C613.027 442.414 612.488 440.902 612.488 439.012V438.613C612.488 437.355 612.727 436.234 613.203 435.25C613.688 434.258 614.359 433.484 615.219 432.93C616.086 432.367 617.023 432.086 618.031 432.086C619.68 432.086 620.961 432.629 621.875 433.715C622.789 434.801 623.246 436.355 623.246 438.379V439.281H614.656C614.688 440.531 615.051 441.543 615.746 442.316C616.449 443.082 617.34 443.465 618.418 443.465C619.184 443.465 619.832 443.309 620.363 442.996C620.895 442.684 621.359 442.27 621.758 441.754L623.082 442.785C622.02 444.418 620.426 445.234 618.301 445.234ZM618.031 433.867C617.156 433.867 616.422 434.188 615.828 434.828C615.234 435.461 614.867 436.352 614.727 437.5H621.078V437.336C621.016 436.234 620.719 435.383 620.188 434.781C619.656 434.172 618.938 433.867 618.031 433.867ZM631.895 434.266C631.566 434.211 631.211 434.184 630.828 434.184C629.406 434.184 628.441 434.789 627.934 436V445H625.766V432.32H627.875L627.91 433.785C628.621 432.652 629.629 432.086 630.934 432.086C631.355 432.086 631.676 432.141 631.895 432.25V434.266ZM633.09 438.543C633.09 437.301 633.332 436.184 633.816 435.191C634.309 434.199 634.988 433.434 635.855 432.895C636.73 432.355 637.727 432.086 638.844 432.086C640.57 432.086 641.965 432.684 643.027 433.879C644.098 435.074 644.633 436.664 644.633 438.648V438.801C644.633 440.035 644.395 441.145 643.918 442.129C643.449 443.105 642.773 443.867 641.891 444.414C641.016 444.961 640.008 445.234 638.867 445.234C637.148 445.234 635.754 444.637 634.684 443.441C633.621 442.246 633.09 440.664 633.09 438.695V438.543ZM635.27 438.801C635.27 440.207 635.594 441.336 636.242 442.188C636.898 443.039 637.773 443.465 638.867 443.465C639.969 443.465 640.844 443.035 641.492 442.176C642.141 441.309 642.465 440.098 642.465 438.543C642.465 437.152 642.133 436.027 641.469 435.168C640.812 434.301 639.938 433.867 638.844 433.867C637.773 433.867 636.91 434.293 636.254 435.145C635.598 435.996 635.27 437.215 635.27 438.801Z" fill="black"/>
<path d="M181.531 439.586C181.32 441.391 180.652 442.785 179.527 443.77C178.41 444.746 176.922 445.234 175.062 445.234C173.047 445.234 171.43 444.512 170.211 443.066C169 441.621 168.395 439.688 168.395 437.266V435.625C168.395 434.039 168.676 432.645 169.238 431.441C169.809 430.238 170.613 429.316 171.652 428.676C172.691 428.027 173.895 427.703 175.262 427.703C177.074 427.703 178.527 428.211 179.621 429.227C180.715 430.234 181.352 431.633 181.531 433.422H179.27C179.074 432.062 178.648 431.078 177.992 430.469C177.344 429.859 176.434 429.555 175.262 429.555C173.824 429.555 172.695 430.086 171.875 431.148C171.062 432.211 170.656 433.723 170.656 435.684V437.336C170.656 439.188 171.043 440.66 171.816 441.754C172.59 442.848 173.672 443.395 175.062 443.395C176.312 443.395 177.27 443.113 177.934 442.551C178.605 441.98 179.051 440.992 179.27 439.586H181.531ZM192.102 445C191.977 444.75 191.875 444.305 191.797 443.664C190.789 444.711 189.586 445.234 188.188 445.234C186.938 445.234 185.91 444.883 185.105 444.18C184.309 443.469 183.91 442.57 183.91 441.484C183.91 440.164 184.41 439.141 185.41 438.414C186.418 437.68 187.832 437.312 189.652 437.312H191.762V436.316C191.762 435.559 191.535 434.957 191.082 434.512C190.629 434.059 189.961 433.832 189.078 433.832C188.305 433.832 187.656 434.027 187.133 434.418C186.609 434.809 186.348 435.281 186.348 435.836H184.168C184.168 435.203 184.391 434.594 184.836 434.008C185.289 433.414 185.898 432.945 186.664 432.602C187.438 432.258 188.285 432.086 189.207 432.086C190.668 432.086 191.812 432.453 192.641 433.188C193.469 433.914 193.898 434.918 193.93 436.199V442.035C193.93 443.199 194.078 444.125 194.375 444.812V445H192.102ZM188.504 443.348C189.184 443.348 189.828 443.172 190.438 442.82C191.047 442.469 191.488 442.012 191.762 441.449V438.848H190.062C187.406 438.848 186.078 439.625 186.078 441.18C186.078 441.859 186.305 442.391 186.758 442.773C187.211 443.156 187.793 443.348 188.504 443.348ZM199.684 445H197.516V427H199.684V445ZM205.52 445H203.352V427H205.52V445ZM214.262 445.234C212.543 445.234 211.145 444.672 210.066 443.547C208.988 442.414 208.449 440.902 208.449 439.012V438.613C208.449 437.355 208.688 436.234 209.164 435.25C209.648 434.258 210.32 433.484 211.18 432.93C212.047 432.367 212.984 432.086 213.992 432.086C215.641 432.086 216.922 432.629 217.836 433.715C218.75 434.801 219.207 436.355 219.207 438.379V439.281H210.617C210.648 440.531 211.012 441.543 211.707 442.316C212.41 443.082 213.301 443.465 214.379 443.465C215.145 443.465 215.793 443.309 216.324 442.996C216.855 442.684 217.32 442.27 217.719 441.754L219.043 442.785C217.98 444.418 216.387 445.234 214.262 445.234ZM213.992 433.867C213.117 433.867 212.383 434.188 211.789 434.828C211.195 435.461 210.828 436.352 210.688 437.5H217.039V437.336C216.977 436.234 216.68 435.383 216.148 434.781C215.617 434.172 214.898 433.867 213.992 433.867Z" fill="black"/>
<path d="M327.971 383V357.406H335.195C337.422 357.406 339.391 357.898 341.102 358.883C342.812 359.867 344.131 361.268 345.057 363.084C345.994 364.9 346.469 366.986 346.48 369.342V370.977C346.48 373.391 346.012 375.506 345.074 377.322C344.148 379.139 342.818 380.533 341.084 381.506C339.361 382.479 337.352 382.977 335.055 383H327.971ZM331.346 360.184V380.24H334.896C337.498 380.24 339.52 379.432 340.961 377.814C342.414 376.197 343.141 373.895 343.141 370.906V369.412C343.141 366.506 342.455 364.25 341.084 362.645C339.725 361.027 337.791 360.207 335.283 360.184H331.346ZM350.225 373.314C350.225 371.451 350.588 369.775 351.314 368.287C352.053 366.799 353.072 365.65 354.373 364.842C355.686 364.033 357.18 363.629 358.855 363.629C361.445 363.629 363.537 364.525 365.131 366.318C366.736 368.111 367.539 370.496 367.539 373.473V373.701C367.539 375.553 367.182 377.217 366.467 378.693C365.764 380.158 364.75 381.301 363.426 382.121C362.113 382.941 360.602 383.352 358.891 383.352C356.312 383.352 354.221 382.455 352.615 380.662C351.021 378.869 350.225 376.496 350.225 373.543V373.314ZM353.494 373.701C353.494 375.811 353.98 377.504 354.953 378.781C355.938 380.059 357.25 380.697 358.891 380.697C360.543 380.697 361.855 380.053 362.828 378.764C363.801 377.463 364.287 375.646 364.287 373.314C364.287 371.229 363.789 369.541 362.793 368.252C361.809 366.951 360.496 366.301 358.855 366.301C357.25 366.301 355.955 366.939 354.971 368.217C353.986 369.494 353.494 371.322 353.494 373.701ZM374.676 363.98L374.764 366.09C376.158 364.449 378.039 363.629 380.406 363.629C383.066 363.629 384.877 364.648 385.838 366.688C386.471 365.773 387.291 365.035 388.299 364.473C389.318 363.91 390.52 363.629 391.902 363.629C396.074 363.629 398.195 365.838 398.266 370.256V383H395.014V370.449C395.014 369.09 394.703 368.076 394.082 367.408C393.461 366.729 392.418 366.389 390.953 366.389C389.746 366.389 388.744 366.752 387.947 367.479C387.15 368.193 386.688 369.16 386.559 370.379V383H383.289V370.537C383.289 367.771 381.936 366.389 379.229 366.389C377.096 366.389 375.637 367.297 374.852 369.113V383H371.6V363.98H374.676ZM406.721 383H403.469V363.98H406.721V383ZM403.205 358.936C403.205 358.408 403.363 357.963 403.68 357.6C404.008 357.236 404.488 357.055 405.121 357.055C405.754 357.055 406.234 357.236 406.562 357.6C406.891 357.963 407.055 358.408 407.055 358.936C407.055 359.463 406.891 359.902 406.562 360.254C406.234 360.605 405.754 360.781 405.121 360.781C404.488 360.781 404.008 360.605 403.68 360.254C403.363 359.902 403.205 359.463 403.205 358.936ZM419.57 380.697C420.73 380.697 421.744 380.346 422.611 379.643C423.479 378.939 423.959 378.061 424.053 377.006H427.129C427.07 378.096 426.695 379.133 426.004 380.117C425.312 381.102 424.387 381.887 423.227 382.473C422.078 383.059 420.859 383.352 419.57 383.352C416.98 383.352 414.918 382.49 413.383 380.768C411.859 379.033 411.098 376.666 411.098 373.666V373.121C411.098 371.27 411.438 369.623 412.117 368.182C412.797 366.74 413.77 365.621 415.035 364.824C416.312 364.027 417.818 363.629 419.553 363.629C421.686 363.629 423.455 364.268 424.861 365.545C426.279 366.822 427.035 368.48 427.129 370.52H424.053C423.959 369.289 423.49 368.281 422.646 367.496C421.814 366.699 420.783 366.301 419.553 366.301C417.9 366.301 416.617 366.898 415.703 368.094C414.801 369.277 414.35 370.994 414.35 373.244V373.859C414.35 376.051 414.801 377.738 415.703 378.922C416.605 380.105 417.895 380.697 419.57 380.697ZM434.318 383H431.066V363.98H434.318V383ZM430.803 358.936C430.803 358.408 430.961 357.963 431.277 357.6C431.605 357.236 432.086 357.055 432.719 357.055C433.352 357.055 433.832 357.236 434.16 357.6C434.488 357.963 434.652 358.408 434.652 358.936C434.652 359.463 434.488 359.902 434.16 360.254C433.832 360.605 433.352 360.781 432.719 360.781C432.086 360.781 431.605 360.605 431.277 360.254C430.961 359.902 430.803 359.463 430.803 358.936ZM443.072 383H439.82V356H443.072V383ZM451.826 383H448.574V363.98H451.826V383ZM448.311 358.936C448.311 358.408 448.469 357.963 448.785 357.6C449.113 357.236 449.594 357.055 450.227 357.055C450.859 357.055 451.34 357.236 451.668 357.6C451.996 357.963 452.16 358.408 452.16 358.936C452.16 359.463 451.996 359.902 451.668 360.254C451.34 360.605 450.859 360.781 450.227 360.781C449.594 360.781 449.113 360.605 448.785 360.254C448.469 359.902 448.311 359.463 448.311 358.936ZM456.186 373.314C456.186 371.451 456.549 369.775 457.275 368.287C458.014 366.799 459.033 365.65 460.334 364.842C461.646 364.033 463.141 363.629 464.816 363.629C467.406 363.629 469.498 364.525 471.092 366.318C472.697 368.111 473.5 370.496 473.5 373.473V373.701C473.5 375.553 473.143 377.217 472.428 378.693C471.725 380.158 470.711 381.301 469.387 382.121C468.074 382.941 466.562 383.352 464.852 383.352C462.273 383.352 460.182 382.455 458.576 380.662C456.982 378.869 456.186 376.496 456.186 373.543V373.314ZM459.455 373.701C459.455 375.811 459.941 377.504 460.914 378.781C461.898 380.059 463.211 380.697 464.852 380.697C466.504 380.697 467.816 380.053 468.789 378.764C469.762 377.463 470.248 375.646 470.248 373.314C470.248 371.229 469.75 369.541 468.754 368.252C467.77 366.951 466.457 366.301 464.816 366.301C463.211 366.301 461.916 366.939 460.932 368.217C459.947 369.494 459.455 371.322 459.455 373.701Z" fill="black"/>
<path d="M256.971 179V153.406H264.195C266.422 153.406 268.391 153.898 270.102 154.883C271.812 155.867 273.131 157.268 274.057 159.084C274.994 160.9 275.469 162.986 275.48 165.342V166.977C275.48 169.391 275.012 171.506 274.074 173.322C273.148 175.139 271.818 176.533 270.084 177.506C268.361 178.479 266.352 178.977 264.055 179H256.971ZM260.346 156.184V176.24H263.896C266.498 176.24 268.52 175.432 269.961 173.814C271.414 172.197 272.141 169.895 272.141 166.906V165.412C272.141 162.506 271.455 160.25 270.084 158.645C268.725 157.027 266.791 156.207 264.283 156.184H260.346ZM291.828 179C291.641 178.625 291.488 177.957 291.371 176.996C289.859 178.566 288.055 179.352 285.957 179.352C284.082 179.352 282.541 178.824 281.334 177.77C280.139 176.703 279.541 175.355 279.541 173.727C279.541 171.746 280.291 170.211 281.791 169.121C283.303 168.02 285.424 167.469 288.154 167.469H291.318V165.975C291.318 164.838 290.979 163.936 290.299 163.268C289.619 162.588 288.617 162.248 287.293 162.248C286.133 162.248 285.16 162.541 284.375 163.127C283.59 163.713 283.197 164.422 283.197 165.254H279.928C279.928 164.305 280.262 163.391 280.93 162.512C281.609 161.621 282.523 160.918 283.672 160.402C284.832 159.887 286.104 159.629 287.486 159.629C289.678 159.629 291.395 160.18 292.637 161.281C293.879 162.371 294.523 163.877 294.57 165.799V174.553C294.57 176.299 294.793 177.688 295.238 178.719V179H291.828ZM286.432 176.521C287.451 176.521 288.418 176.258 289.332 175.73C290.246 175.203 290.908 174.518 291.318 173.674V169.771H288.77C284.785 169.771 282.793 170.938 282.793 173.27C282.793 174.289 283.133 175.086 283.812 175.66C284.492 176.234 285.365 176.521 286.432 176.521ZM304.08 155.375V159.98H307.631V162.494H304.08V174.289C304.08 175.051 304.238 175.625 304.555 176.012C304.871 176.387 305.41 176.574 306.172 176.574C306.547 176.574 307.062 176.504 307.719 176.363V179C306.863 179.234 306.031 179.352 305.223 179.352C303.77 179.352 302.674 178.912 301.936 178.033C301.197 177.154 300.828 175.906 300.828 174.289V162.494H297.365V159.98H300.828V155.375H304.08ZM310.232 169.314C310.232 167.451 310.596 165.775 311.322 164.287C312.061 162.799 313.08 161.65 314.381 160.842C315.693 160.033 317.188 159.629 318.863 159.629C321.453 159.629 323.545 160.525 325.139 162.318C326.744 164.111 327.547 166.496 327.547 169.473V169.701C327.547 171.553 327.189 173.217 326.475 174.693C325.771 176.158 324.758 177.301 323.434 178.121C322.121 178.941 320.609 179.352 318.898 179.352C316.32 179.352 314.229 178.455 312.623 176.662C311.029 174.869 310.232 172.496 310.232 169.543V169.314ZM313.502 169.701C313.502 171.811 313.988 173.504 314.961 174.781C315.945 176.059 317.258 176.697 318.898 176.697C320.551 176.697 321.863 176.053 322.836 174.764C323.809 173.463 324.295 171.646 324.295 169.314C324.295 167.229 323.797 165.541 322.801 164.252C321.816 162.951 320.504 162.301 318.863 162.301C317.258 162.301 315.963 162.939 314.979 164.217C313.994 165.494 313.502 167.322 313.502 169.701ZM342.699 173.955C342.699 173.076 342.365 172.396 341.697 171.916C341.041 171.424 339.887 171.002 338.234 170.65C336.594 170.299 335.287 169.877 334.314 169.385C333.354 168.893 332.639 168.307 332.17 167.627C331.713 166.947 331.484 166.139 331.484 165.201C331.484 163.643 332.141 162.324 333.453 161.246C334.777 160.168 336.465 159.629 338.516 159.629C340.672 159.629 342.418 160.186 343.754 161.299C345.102 162.412 345.775 163.836 345.775 165.57H342.506C342.506 164.68 342.125 163.912 341.363 163.268C340.613 162.623 339.664 162.301 338.516 162.301C337.332 162.301 336.406 162.559 335.738 163.074C335.07 163.59 334.736 164.264 334.736 165.096C334.736 165.881 335.047 166.473 335.668 166.871C336.289 167.27 337.408 167.65 339.025 168.014C340.654 168.377 341.973 168.811 342.98 169.314C343.988 169.818 344.732 170.428 345.213 171.143C345.705 171.846 345.951 172.707 345.951 173.727C345.951 175.426 345.271 176.791 343.912 177.822C342.553 178.842 340.789 179.352 338.621 179.352C337.098 179.352 335.75 179.082 334.578 178.543C333.406 178.004 332.486 177.254 331.818 176.293C331.162 175.32 330.834 174.271 330.834 173.146H334.086C334.145 174.236 334.578 175.104 335.387 175.748C336.207 176.381 337.285 176.697 338.621 176.697C339.852 176.697 340.836 176.451 341.574 175.959C342.324 175.455 342.699 174.787 342.699 173.955ZM358.326 169.332C358.326 166.414 359.018 164.07 360.4 162.301C361.783 160.52 363.594 159.629 365.832 159.629C368.059 159.629 369.822 160.391 371.123 161.914V152H374.375V179H371.387L371.229 176.961C369.928 178.555 368.117 179.352 365.797 179.352C363.594 179.352 361.795 178.449 360.4 176.645C359.018 174.84 358.326 172.484 358.326 169.578V169.332ZM361.578 169.701C361.578 171.857 362.023 173.545 362.914 174.764C363.805 175.982 365.035 176.592 366.605 176.592C368.668 176.592 370.174 175.666 371.123 173.814V165.078C370.15 163.285 368.656 162.389 366.641 162.389C365.047 162.389 363.805 163.004 362.914 164.234C362.023 165.465 361.578 167.287 361.578 169.701ZM387.33 179.352C384.752 179.352 382.654 178.508 381.037 176.82C379.42 175.121 378.611 172.854 378.611 170.018V169.42C378.611 167.533 378.969 165.852 379.684 164.375C380.41 162.887 381.418 161.727 382.707 160.895C384.008 160.051 385.414 159.629 386.926 159.629C389.398 159.629 391.32 160.443 392.691 162.072C394.062 163.701 394.748 166.033 394.748 169.068V170.422H381.863C381.91 172.297 382.455 173.814 383.498 174.975C384.553 176.123 385.889 176.697 387.506 176.697C388.654 176.697 389.627 176.463 390.424 175.994C391.221 175.525 391.918 174.904 392.516 174.131L394.502 175.678C392.908 178.127 390.518 179.352 387.33 179.352ZM386.926 162.301C385.613 162.301 384.512 162.781 383.621 163.742C382.73 164.691 382.18 166.027 381.969 167.75H391.496V167.504C391.402 165.852 390.957 164.574 390.16 163.672C389.363 162.758 388.285 162.301 386.926 162.301ZM415.086 176.697C416.246 176.697 417.26 176.346 418.127 175.643C418.994 174.939 419.475 174.061 419.568 173.006H422.645C422.586 174.096 422.211 175.133 421.52 176.117C420.828 177.102 419.902 177.887 418.742 178.473C417.594 179.059 416.375 179.352 415.086 179.352C412.496 179.352 410.434 178.49 408.898 176.768C407.375 175.033 406.613 172.666 406.613 169.666V169.121C406.613 167.27 406.953 165.623 407.633 164.182C408.312 162.74 409.285 161.621 410.551 160.824C411.828 160.027 413.334 159.629 415.068 159.629C417.201 159.629 418.971 160.268 420.377 161.545C421.795 162.822 422.551 164.48 422.645 166.52H419.568C419.475 165.289 419.006 164.281 418.162 163.496C417.33 162.699 416.299 162.301 415.068 162.301C413.416 162.301 412.133 162.898 411.219 164.094C410.316 165.277 409.865 166.994 409.865 169.244V169.859C409.865 172.051 410.316 173.738 411.219 174.922C412.121 176.105 413.41 176.697 415.086 176.697ZM425.439 169.314C425.439 167.451 425.803 165.775 426.529 164.287C427.268 162.799 428.287 161.65 429.588 160.842C430.9 160.033 432.395 159.629 434.07 159.629C436.66 159.629 438.752 160.525 440.346 162.318C441.951 164.111 442.754 166.496 442.754 169.473V169.701C442.754 171.553 442.396 173.217 441.682 174.693C440.979 176.158 439.965 177.301 438.641 178.121C437.328 178.941 435.816 179.352 434.105 179.352C431.527 179.352 429.436 178.455 427.83 176.662C426.236 174.869 425.439 172.496 425.439 169.543V169.314ZM428.709 169.701C428.709 171.811 429.195 173.504 430.168 174.781C431.152 176.059 432.465 176.697 434.105 176.697C435.758 176.697 437.07 176.053 438.043 174.764C439.016 173.463 439.502 171.646 439.502 169.314C439.502 167.229 439.004 165.541 438.008 164.252C437.023 162.951 435.711 162.301 434.07 162.301C432.465 162.301 431.17 162.939 430.186 164.217C429.201 165.494 428.709 167.322 428.709 169.701ZM449.908 159.98L450.014 162.371C451.467 160.543 453.365 159.629 455.709 159.629C459.729 159.629 461.756 161.896 461.791 166.432V179H458.539V166.414C458.527 165.043 458.211 164.029 457.59 163.373C456.98 162.717 456.025 162.389 454.725 162.389C453.67 162.389 452.744 162.67 451.947 163.232C451.15 163.795 450.529 164.533 450.084 165.447V179H446.832V159.98H449.908ZM471.107 155.375V159.98H474.658V162.494H471.107V174.289C471.107 175.051 471.266 175.625 471.582 176.012C471.898 176.387 472.438 176.574 473.199 176.574C473.574 176.574 474.09 176.504 474.746 176.363V179C473.891 179.234 473.059 179.352 472.25 179.352C470.797 179.352 469.701 178.912 468.963 178.033C468.225 177.154 467.855 175.906 467.855 174.289V162.494H464.393V159.98H467.855V155.375H471.107ZM490.215 179C490.027 178.625 489.875 177.957 489.758 176.996C488.246 178.566 486.441 179.352 484.344 179.352C482.469 179.352 480.928 178.824 479.721 177.77C478.525 176.703 477.928 175.355 477.928 173.727C477.928 171.746 478.678 170.211 480.178 169.121C481.689 168.02 483.811 167.469 486.541 167.469H489.705V165.975C489.705 164.838 489.365 163.936 488.686 163.268C488.006 162.588 487.004 162.248 485.68 162.248C484.52 162.248 483.547 162.541 482.762 163.127C481.977 163.713 481.584 164.422 481.584 165.254H478.314C478.314 164.305 478.648 163.391 479.316 162.512C479.996 161.621 480.91 160.918 482.059 160.402C483.219 159.887 484.49 159.629 485.873 159.629C488.064 159.629 489.781 160.18 491.023 161.281C492.266 162.371 492.91 163.877 492.957 165.799V174.553C492.957 176.299 493.18 177.688 493.625 178.719V179H490.215ZM484.818 176.521C485.838 176.521 486.805 176.258 487.719 175.73C488.633 175.203 489.295 174.518 489.705 173.674V169.771H487.156C483.172 169.771 481.18 170.938 481.18 173.27C481.18 174.289 481.52 175.086 482.199 175.66C482.879 176.234 483.752 176.521 484.818 176.521ZM505.684 176.697C506.844 176.697 507.857 176.346 508.725 175.643C509.592 174.939 510.072 174.061 510.166 173.006H513.242C513.184 174.096 512.809 175.133 512.117 176.117C511.426 177.102 510.5 177.887 509.34 178.473C508.191 179.059 506.973 179.352 505.684 179.352C503.094 179.352 501.031 178.49 499.496 176.768C497.973 175.033 497.211 172.666 497.211 169.666V169.121C497.211 167.27 497.551 165.623 498.23 164.182C498.91 162.74 499.883 161.621 501.148 160.824C502.426 160.027 503.932 159.629 505.666 159.629C507.799 159.629 509.568 160.268 510.975 161.545C512.393 162.822 513.148 164.48 513.242 166.52H510.166C510.072 165.289 509.604 164.281 508.76 163.496C507.928 162.699 506.896 162.301 505.666 162.301C504.014 162.301 502.73 162.898 501.816 164.094C500.914 165.277 500.463 166.994 500.463 169.244V169.859C500.463 172.051 500.914 173.738 501.816 174.922C502.719 176.105 504.008 176.697 505.684 176.697ZM521.311 155.375V159.98H524.861V162.494H521.311V174.289C521.311 175.051 521.469 175.625 521.785 176.012C522.102 176.387 522.641 176.574 523.402 176.574C523.777 176.574 524.293 176.504 524.949 176.363V179C524.094 179.234 523.262 179.352 522.453 179.352C521 179.352 519.904 178.912 519.166 178.033C518.428 177.154 518.059 175.906 518.059 174.289V162.494H514.596V159.98H518.059V155.375H521.311ZM527.463 169.314C527.463 167.451 527.826 165.775 528.553 164.287C529.291 162.799 530.311 161.65 531.611 160.842C532.924 160.033 534.418 159.629 536.094 159.629C538.684 159.629 540.775 160.525 542.369 162.318C543.975 164.111 544.777 166.496 544.777 169.473V169.701C544.777 171.553 544.42 173.217 543.705 174.693C543.002 176.158 541.988 177.301 540.664 178.121C539.352 178.941 537.84 179.352 536.129 179.352C533.551 179.352 531.459 178.455 529.854 176.662C528.26 174.869 527.463 172.496 527.463 169.543V169.314ZM530.732 169.701C530.732 171.811 531.219 173.504 532.191 174.781C533.176 176.059 534.488 176.697 536.129 176.697C537.781 176.697 539.094 176.053 540.066 174.764C541.039 173.463 541.525 171.646 541.525 169.314C541.525 167.229 541.027 165.541 540.031 164.252C539.047 162.951 537.734 162.301 536.094 162.301C534.488 162.301 533.193 162.939 532.209 164.217C531.225 165.494 530.732 167.322 530.732 169.701Z" fill="black"/>
<path d="M166.094 239H163.832L155.242 225.852V239H152.98V221.938H155.242L163.855 235.145V221.938H166.094V239ZM169.176 232.543C169.176 231.301 169.418 230.184 169.902 229.191C170.395 228.199 171.074 227.434 171.941 226.895C172.816 226.355 173.812 226.086 174.93 226.086C176.656 226.086 178.051 226.684 179.113 227.879C180.184 229.074 180.719 230.664 180.719 232.648V232.801C180.719 234.035 180.48 235.145 180.004 236.129C179.535 237.105 178.859 237.867 177.977 238.414C177.102 238.961 176.094 239.234 174.953 239.234C173.234 239.234 171.84 238.637 170.77 237.441C169.707 236.246 169.176 234.664 169.176 232.695V232.543ZM171.355 232.801C171.355 234.207 171.68 235.336 172.328 236.188C172.984 237.039 173.859 237.465 174.953 237.465C176.055 237.465 176.93 237.035 177.578 236.176C178.227 235.309 178.551 234.098 178.551 232.543C178.551 231.152 178.219 230.027 177.555 229.168C176.898 228.301 176.023 227.867 174.93 227.867C173.859 227.867 172.996 228.293 172.34 229.145C171.684 229.996 171.355 231.215 171.355 232.801ZM185.477 226.32L185.535 227.727C186.465 226.633 187.719 226.086 189.297 226.086C191.07 226.086 192.277 226.766 192.918 228.125C193.34 227.516 193.887 227.023 194.559 226.648C195.238 226.273 196.039 226.086 196.961 226.086C199.742 226.086 201.156 227.559 201.203 230.504V239H199.035V230.633C199.035 229.727 198.828 229.051 198.414 228.605C198 228.152 197.305 227.926 196.328 227.926C195.523 227.926 194.855 228.168 194.324 228.652C193.793 229.129 193.484 229.773 193.398 230.586V239H191.219V230.691C191.219 228.848 190.316 227.926 188.512 227.926C187.09 227.926 186.117 228.531 185.594 229.742V239H183.426V226.32H185.477ZM215.219 232.801C215.219 234.738 214.773 236.297 213.883 237.477C212.992 238.648 211.797 239.234 210.297 239.234C208.695 239.234 207.457 238.668 206.582 237.535L206.477 239H204.484V221H206.652V227.715C207.527 226.629 208.734 226.086 210.273 226.086C211.812 226.086 213.02 226.668 213.895 227.832C214.777 228.996 215.219 230.59 215.219 232.613V232.801ZM213.051 232.555C213.051 231.078 212.766 229.938 212.195 229.133C211.625 228.328 210.805 227.926 209.734 227.926C208.305 227.926 207.277 228.59 206.652 229.918V235.402C207.316 236.73 208.352 237.395 209.758 237.395C210.797 237.395 211.605 236.992 212.184 236.188C212.762 235.383 213.051 234.172 213.051 232.555ZM224.09 228.266C223.762 228.211 223.406 228.184 223.023 228.184C221.602 228.184 220.637 228.789 220.129 230V239H217.961V226.32H220.07L220.105 227.785C220.816 226.652 221.824 226.086 223.129 226.086C223.551 226.086 223.871 226.141 224.09 226.25V228.266ZM231.121 239.234C229.402 239.234 228.004 238.672 226.926 237.547C225.848 236.414 225.309 234.902 225.309 233.012V232.613C225.309 231.355 225.547 230.234 226.023 229.25C226.508 228.258 227.18 227.484 228.039 226.93C228.906 226.367 229.844 226.086 230.852 226.086C232.5 226.086 233.781 226.629 234.695 227.715C235.609 228.801 236.066 230.355 236.066 232.379V233.281H227.477C227.508 234.531 227.871 235.543 228.566 236.316C229.27 237.082 230.16 237.465 231.238 237.465C232.004 237.465 232.652 237.309 233.184 236.996C233.715 236.684 234.18 236.27 234.578 235.754L235.902 236.785C234.84 238.418 233.246 239.234 231.121 239.234ZM230.852 227.867C229.977 227.867 229.242 228.188 228.648 228.828C228.055 229.461 227.688 230.352 227.547 231.5H233.898V231.336C233.836 230.234 233.539 229.383 233.008 228.781C232.477 228.172 231.758 227.867 230.852 227.867Z" fill="black"/>
<path d="M570.402 234.547H563.254L561.648 239H559.328L565.844 221.938H567.812L574.34 239H572.031L570.402 234.547ZM563.934 232.695H569.734L566.828 224.715L563.934 232.695ZM587.008 232.801C587.008 234.73 586.566 236.285 585.684 237.465C584.801 238.645 583.605 239.234 582.098 239.234C580.559 239.234 579.348 238.746 578.465 237.77V243.875H576.297V226.32H578.277L578.383 227.727C579.266 226.633 580.492 226.086 582.062 226.086C583.586 226.086 584.789 226.66 585.672 227.809C586.562 228.957 587.008 230.555 587.008 232.602V232.801ZM584.84 232.555C584.84 231.125 584.535 229.996 583.926 229.168C583.316 228.34 582.48 227.926 581.418 227.926C580.105 227.926 579.121 228.508 578.465 229.672V235.73C579.113 236.887 580.105 237.465 581.441 237.465C582.48 237.465 583.305 237.055 583.914 236.234C584.531 235.406 584.84 234.18 584.84 232.555ZM595.035 239.234C593.316 239.234 591.918 238.672 590.84 237.547C589.762 236.414 589.223 234.902 589.223 233.012V232.613C589.223 231.355 589.461 230.234 589.938 229.25C590.422 228.258 591.094 227.484 591.953 226.93C592.82 226.367 593.758 226.086 594.766 226.086C596.414 226.086 597.695 226.629 598.609 227.715C599.523 228.801 599.98 230.355 599.98 232.379V233.281H591.391C591.422 234.531 591.785 235.543 592.48 236.316C593.184 237.082 594.074 237.465 595.152 237.465C595.918 237.465 596.566 237.309 597.098 236.996C597.629 236.684 598.094 236.27 598.492 235.754L599.816 236.785C598.754 238.418 597.16 239.234 595.035 239.234ZM594.766 227.867C593.891 227.867 593.156 228.188 592.562 228.828C591.969 229.461 591.602 230.352 591.461 231.5H597.812V231.336C597.75 230.234 597.453 229.383 596.922 228.781C596.391 228.172 595.672 227.867 594.766 227.867ZM604.855 239H602.688V221H604.855V239ZM610.691 239H608.523V221H610.691V239ZM616.527 239H614.359V226.32H616.527V239ZM614.184 222.957C614.184 222.605 614.289 222.309 614.5 222.066C614.719 221.824 615.039 221.703 615.461 221.703C615.883 221.703 616.203 221.824 616.422 222.066C616.641 222.309 616.75 222.605 616.75 222.957C616.75 223.309 616.641 223.602 616.422 223.836C616.203 224.07 615.883 224.188 615.461 224.188C615.039 224.188 614.719 224.07 614.5 223.836C614.289 223.602 614.184 223.309 614.184 222.957ZM619.48 232.555C619.48 230.609 619.941 229.047 620.863 227.867C621.785 226.68 622.992 226.086 624.484 226.086C625.969 226.086 627.145 226.594 628.012 227.609V221H630.18V239H628.188L628.082 237.641C627.215 238.703 626.008 239.234 624.461 239.234C622.992 239.234 621.793 238.633 620.863 237.43C619.941 236.227 619.48 234.656 619.48 232.719V232.555ZM621.648 232.801C621.648 234.238 621.945 235.363 622.539 236.176C623.133 236.988 623.953 237.395 625 237.395C626.375 237.395 627.379 236.777 628.012 235.543V229.719C627.363 228.523 626.367 227.926 625.023 227.926C623.961 227.926 623.133 228.336 622.539 229.156C621.945 229.977 621.648 231.191 621.648 232.801ZM632.98 232.543C632.98 231.301 633.223 230.184 633.707 229.191C634.199 228.199 634.879 227.434 635.746 226.895C636.621 226.355 637.617 226.086 638.734 226.086C640.461 226.086 641.855 226.684 642.918 227.879C643.988 229.074 644.523 230.664 644.523 232.648V232.801C644.523 234.035 644.285 235.145 643.809 236.129C643.34 237.105 642.664 237.867 641.781 238.414C640.906 238.961 639.898 239.234 638.758 239.234C637.039 239.234 635.645 238.637 634.574 237.441C633.512 236.246 632.98 234.664 632.98 232.695V232.543ZM635.16 232.801C635.16 234.207 635.484 235.336 636.133 236.188C636.789 237.039 637.664 237.465 638.758 237.465C639.859 237.465 640.734 237.035 641.383 236.176C642.031 235.309 642.355 234.098 642.355 232.543C642.355 231.152 642.023 230.027 641.359 229.168C640.703 228.301 639.828 227.867 638.734 227.867C637.664 227.867 636.801 228.293 636.145 229.145C635.488 229.996 635.16 231.215 635.16 232.801Z" fill="black"/>
<path d="M366.77 293.789H361.285V309H359.047V293.789H353.574V291.938H366.77V293.789ZM373.051 309.234C371.332 309.234 369.934 308.672 368.855 307.547C367.777 306.414 367.238 304.902 367.238 303.012V302.613C367.238 301.355 367.477 300.234 367.953 299.25C368.438 298.258 369.109 297.484 369.969 296.93C370.836 296.367 371.773 296.086 372.781 296.086C374.43 296.086 375.711 296.629 376.625 297.715C377.539 298.801 377.996 300.355 377.996 302.379V303.281H369.406C369.438 304.531 369.801 305.543 370.496 306.316C371.199 307.082 372.09 307.465 373.168 307.465C373.934 307.465 374.582 307.309 375.113 306.996C375.645 306.684 376.109 306.27 376.508 305.754L377.832 306.785C376.77 308.418 375.176 309.234 373.051 309.234ZM372.781 297.867C371.906 297.867 371.172 298.188 370.578 298.828C369.984 299.461 369.617 300.352 369.477 301.5H375.828V301.336C375.766 300.234 375.469 299.383 374.938 298.781C374.406 298.172 373.688 297.867 372.781 297.867ZM382.871 309H380.703V291H382.871V309ZM391.613 309.234C389.895 309.234 388.496 308.672 387.418 307.547C386.34 306.414 385.801 304.902 385.801 303.012V302.613C385.801 301.355 386.039 300.234 386.516 299.25C387 298.258 387.672 297.484 388.531 296.93C389.398 296.367 390.336 296.086 391.344 296.086C392.992 296.086 394.273 296.629 395.188 297.715C396.102 298.801 396.559 300.355 396.559 302.379V303.281H387.969C388 304.531 388.363 305.543 389.059 306.316C389.762 307.082 390.652 307.465 391.73 307.465C392.496 307.465 393.145 307.309 393.676 306.996C394.207 306.684 394.672 306.27 395.07 305.754L396.395 306.785C395.332 308.418 393.738 309.234 391.613 309.234ZM391.344 297.867C390.469 297.867 389.734 298.188 389.141 298.828C388.547 299.461 388.18 300.352 388.039 301.5H394.391V301.336C394.328 300.234 394.031 299.383 393.5 298.781C392.969 298.172 392.25 297.867 391.344 297.867ZM400.145 309V297.996H398.141V296.32H400.145V295.02C400.145 293.66 400.508 292.609 401.234 291.867C401.961 291.125 402.988 290.754 404.316 290.754C404.816 290.754 405.312 290.82 405.805 290.953L405.688 292.711C405.32 292.641 404.93 292.605 404.516 292.605C403.812 292.605 403.27 292.812 402.887 293.227C402.504 293.633 402.312 294.219 402.312 294.984V296.32H405.02V297.996H402.312V309H400.145ZM406.848 302.543C406.848 301.301 407.09 300.184 407.574 299.191C408.066 298.199 408.746 297.434 409.613 296.895C410.488 296.355 411.484 296.086 412.602 296.086C414.328 296.086 415.723 296.684 416.785 297.879C417.855 299.074 418.391 300.664 418.391 302.648V302.801C418.391 304.035 418.152 305.145 417.676 306.129C417.207 307.105 416.531 307.867 415.648 308.414C414.773 308.961 413.766 309.234 412.625 309.234C410.906 309.234 409.512 308.637 408.441 307.441C407.379 306.246 406.848 304.664 406.848 302.695V302.543ZM409.027 302.801C409.027 304.207 409.352 305.336 410 306.188C410.656 307.039 411.531 307.465 412.625 307.465C413.727 307.465 414.602 307.035 415.25 306.176C415.898 305.309 416.223 304.098 416.223 302.543C416.223 301.152 415.891 300.027 415.227 299.168C414.57 298.301 413.695 297.867 412.602 297.867C411.531 297.867 410.668 298.293 410.012 299.145C409.355 299.996 409.027 301.215 409.027 302.801ZM423.16 296.32L423.23 297.914C424.199 296.695 425.465 296.086 427.027 296.086C429.707 296.086 431.059 297.598 431.082 300.621V309H428.914V300.609C428.906 299.695 428.695 299.02 428.281 298.582C427.875 298.145 427.238 297.926 426.371 297.926C425.668 297.926 425.051 298.113 424.52 298.488C423.988 298.863 423.574 299.355 423.277 299.965V309H421.109V296.32H423.16ZM433.777 302.543C433.777 301.301 434.02 300.184 434.504 299.191C434.996 298.199 435.676 297.434 436.543 296.895C437.418 296.355 438.414 296.086 439.531 296.086C441.258 296.086 442.652 296.684 443.715 297.879C444.785 299.074 445.32 300.664 445.32 302.648V302.801C445.32 304.035 445.082 305.145 444.605 306.129C444.137 307.105 443.461 307.867 442.578 308.414C441.703 308.961 440.695 309.234 439.555 309.234C437.836 309.234 436.441 308.637 435.371 307.441C434.309 306.246 433.777 304.664 433.777 302.695V302.543ZM435.957 302.801C435.957 304.207 436.281 305.336 436.93 306.188C437.586 307.039 438.461 307.465 439.555 307.465C440.656 307.465 441.531 307.035 442.18 306.176C442.828 305.309 443.152 304.098 443.152 302.543C443.152 301.152 442.82 300.027 442.156 299.168C441.5 298.301 440.625 297.867 439.531 297.867C438.461 297.867 437.598 298.293 436.941 299.145C436.285 299.996 435.957 301.215 435.957 302.801Z" fill="black"/>
<rect width="800" height="128" fill="#00B2FF"/>
<path d="M274.062 69.1719C273.641 72.7812 272.305 75.5703 270.055 77.5391C267.82 79.4922 264.844 80.4688 261.125 80.4688C257.094 80.4688 253.859 79.0234 251.422 76.1328C249 73.2422 247.789 69.375 247.789 64.5312V61.25C247.789 58.0781 248.352 55.2891 249.477 52.8828C250.617 50.4766 252.227 48.6328 254.305 47.3516C256.383 46.0547 258.789 45.4062 261.523 45.4062C265.148 45.4062 268.055 46.4219 270.242 48.4531C272.43 50.4688 273.703 53.2656 274.062 56.8438H269.539C269.148 54.125 268.297 52.1562 266.984 50.9375C265.688 49.7188 263.867 49.1094 261.523 49.1094C258.648 49.1094 256.391 50.1719 254.75 52.2969C253.125 54.4219 252.312 57.4453 252.312 61.3672V64.6719C252.312 68.375 253.086 71.3203 254.633 73.5078C256.18 75.6953 258.344 76.7891 261.125 76.7891C263.625 76.7891 265.539 76.2266 266.867 75.1016C268.211 73.9609 269.102 71.9844 269.539 69.1719H274.062ZM291.805 58.5312C291.148 58.4219 290.438 58.3672 289.672 58.3672C286.828 58.3672 284.898 59.5781 283.883 62V80H279.547V54.6406H283.766L283.836 57.5703C285.258 55.3047 287.273 54.1719 289.883 54.1719C290.727 54.1719 291.367 54.2812 291.805 54.5V58.5312ZM305.867 80.4688C302.43 80.4688 299.633 79.3438 297.477 77.0938C295.32 74.8281 294.242 71.8047 294.242 68.0234V67.2266C294.242 64.7109 294.719 62.4688 295.672 60.5C296.641 58.5156 297.984 56.9688 299.703 55.8594C301.438 54.7344 303.312 54.1719 305.328 54.1719C308.625 54.1719 311.188 55.2578 313.016 57.4297C314.844 59.6016 315.758 62.7109 315.758 66.7578V68.5625H298.578C298.641 71.0625 299.367 73.0859 300.758 74.6328C302.164 76.1641 303.945 76.9297 306.102 76.9297C307.633 76.9297 308.93 76.6172 309.992 75.9922C311.055 75.3672 311.984 74.5391 312.781 73.5078L315.43 75.5703C313.305 78.8359 310.117 80.4688 305.867 80.4688ZM305.328 57.7344C303.578 57.7344 302.109 58.375 300.922 59.6562C299.734 60.9219 299 62.7031 298.719 65H311.422V64.6719C311.297 62.4688 310.703 60.7656 309.641 59.5625C308.578 58.3438 307.141 57.7344 305.328 57.7344ZM336.453 80C336.203 79.5 336 78.6094 335.844 77.3281C333.828 79.4219 331.422 80.4688 328.625 80.4688C326.125 80.4688 324.07 79.7656 322.461 78.3594C320.867 76.9375 320.07 75.1406 320.07 72.9688C320.07 70.3281 321.07 68.2812 323.07 66.8281C325.086 65.3594 327.914 64.625 331.555 64.625H335.773V62.6328C335.773 61.1172 335.32 59.9141 334.414 59.0234C333.508 58.1172 332.172 57.6641 330.406 57.6641C328.859 57.6641 327.562 58.0547 326.516 58.8359C325.469 59.6172 324.945 60.5625 324.945 61.6719H320.586C320.586 60.4062 321.031 59.1875 321.922 58.0156C322.828 56.8281 324.047 55.8906 325.578 55.2031C327.125 54.5156 328.82 54.1719 330.664 54.1719C333.586 54.1719 335.875 54.9062 337.531 56.375C339.188 57.8281 340.047 59.8359 340.109 62.3984V74.0703C340.109 76.3984 340.406 78.25 341 79.625V80H336.453ZM329.258 76.6953C330.617 76.6953 331.906 76.3438 333.125 75.6406C334.344 74.9375 335.227 74.0234 335.773 72.8984V67.6953H332.375C327.062 67.6953 324.406 69.25 324.406 72.3594C324.406 73.7188 324.859 74.7812 325.766 75.5469C326.672 76.3125 327.836 76.6953 329.258 76.6953ZM364.695 48.5V54.6406H369.43V57.9922H364.695V73.7188C364.695 74.7344 364.906 75.5 365.328 76.0156C365.75 76.5156 366.469 76.7656 367.484 76.7656C367.984 76.7656 368.672 76.6719 369.547 76.4844V80C368.406 80.3125 367.297 80.4688 366.219 80.4688C364.281 80.4688 362.82 79.8828 361.836 78.7109C360.852 77.5391 360.359 75.875 360.359 73.7188V57.9922H355.742V54.6406H360.359V48.5H364.695ZM390.172 77.4922C388.484 79.4766 386.008 80.4688 382.742 80.4688C380.039 80.4688 377.977 79.6875 376.555 78.125C375.148 76.5469 374.438 74.2188 374.422 71.1406V54.6406H378.758V71.0234C378.758 74.8672 380.32 76.7891 383.445 76.7891C386.758 76.7891 388.961 75.5547 390.055 73.0859V54.6406H394.391V80H390.266L390.172 77.4922ZM423.078 76.9297C424.625 76.9297 425.977 76.4609 427.133 75.5234C428.289 74.5859 428.93 73.4141 429.055 72.0078H433.156C433.078 73.4609 432.578 74.8438 431.656 76.1562C430.734 77.4688 429.5 78.5156 427.953 79.2969C426.422 80.0781 424.797 80.4688 423.078 80.4688C419.625 80.4688 416.875 79.3203 414.828 77.0234C412.797 74.7109 411.781 71.5547 411.781 67.5547V66.8281C411.781 64.3594 412.234 62.1641 413.141 60.2422C414.047 58.3203 415.344 56.8281 417.031 55.7656C418.734 54.7031 420.742 54.1719 423.055 54.1719C425.898 54.1719 428.258 55.0234 430.133 56.7266C432.023 58.4297 433.031 60.6406 433.156 63.3594H429.055C428.93 61.7188 428.305 60.375 427.18 59.3281C426.07 58.2656 424.695 57.7344 423.055 57.7344C420.852 57.7344 419.141 58.5312 417.922 60.125C416.719 61.7031 416.117 63.9922 416.117 66.9922V67.8125C416.117 70.7344 416.719 72.9844 417.922 74.5625C419.125 76.1406 420.844 76.9297 423.078 76.9297ZM453.688 77.4922C452 79.4766 449.523 80.4688 446.258 80.4688C443.555 80.4688 441.492 79.6875 440.07 78.125C438.664 76.5469 437.953 74.2188 437.938 71.1406V54.6406H442.273V71.0234C442.273 74.8672 443.836 76.7891 446.961 76.7891C450.273 76.7891 452.477 75.5547 453.57 73.0859V54.6406H457.906V80H453.781L453.688 77.4922ZM475.039 80.4688C471.602 80.4688 468.805 79.3438 466.648 77.0938C464.492 74.8281 463.414 71.8047 463.414 68.0234V67.2266C463.414 64.7109 463.891 62.4688 464.844 60.5C465.812 58.5156 467.156 56.9688 468.875 55.8594C470.609 54.7344 472.484 54.1719 474.5 54.1719C477.797 54.1719 480.359 55.2578 482.188 57.4297C484.016 59.6016 484.93 62.7109 484.93 66.7578V68.5625H467.75C467.812 71.0625 468.539 73.0859 469.93 74.6328C471.336 76.1641 473.117 76.9297 475.273 76.9297C476.805 76.9297 478.102 76.6172 479.164 75.9922C480.227 75.3672 481.156 74.5391 481.953 73.5078L484.602 75.5703C482.477 78.8359 479.289 80.4688 475.039 80.4688ZM474.5 57.7344C472.75 57.7344 471.281 58.375 470.094 59.6562C468.906 60.9219 468.172 62.7031 467.891 65H480.594V64.6719C480.469 62.4688 479.875 60.7656 478.812 59.5625C477.75 58.3438 476.312 57.7344 474.5 57.7344ZM494.07 54.6406L494.211 57.8281C496.148 55.3906 498.68 54.1719 501.805 54.1719C507.164 54.1719 509.867 57.1953 509.914 63.2422V80H505.578V63.2188C505.562 61.3906 505.141 60.0391 504.312 59.1641C503.5 58.2891 502.227 57.8516 500.492 57.8516C499.086 57.8516 497.852 58.2266 496.789 58.9766C495.727 59.7266 494.898 60.7109 494.305 61.9297V80H489.969V54.6406H494.07ZM522.336 48.5V54.6406H527.07V57.9922H522.336V73.7188C522.336 74.7344 522.547 75.5 522.969 76.0156C523.391 76.5156 524.109 76.7656 525.125 76.7656C525.625 76.7656 526.312 76.6719 527.188 76.4844V80C526.047 80.3125 524.938 80.4688 523.859 80.4688C521.922 80.4688 520.461 79.8828 519.477 78.7109C518.492 77.5391 518 75.875 518 73.7188V57.9922H513.383V54.6406H518V48.5H522.336ZM547.812 80C547.562 79.5 547.359 78.6094 547.203 77.3281C545.188 79.4219 542.781 80.4688 539.984 80.4688C537.484 80.4688 535.43 79.7656 533.82 78.3594C532.227 76.9375 531.43 75.1406 531.43 72.9688C531.43 70.3281 532.43 68.2812 534.43 66.8281C536.445 65.3594 539.273 64.625 542.914 64.625H547.133V62.6328C547.133 61.1172 546.68 59.9141 545.773 59.0234C544.867 58.1172 543.531 57.6641 541.766 57.6641C540.219 57.6641 538.922 58.0547 537.875 58.8359C536.828 59.6172 536.305 60.5625 536.305 61.6719H531.945C531.945 60.4062 532.391 59.1875 533.281 58.0156C534.188 56.8281 535.406 55.8906 536.938 55.2031C538.484 54.5156 540.18 54.1719 542.023 54.1719C544.945 54.1719 547.234 54.9062 548.891 56.375C550.547 57.8281 551.406 59.8359 551.469 62.3984V74.0703C551.469 76.3984 551.766 78.25 552.359 79.625V80H547.812ZM540.617 76.6953C541.977 76.6953 543.266 76.3438 544.484 75.6406C545.703 74.9375 546.586 74.0234 547.133 72.8984V67.6953H543.734C538.422 67.6953 535.766 69.25 535.766 72.3594C535.766 73.7188 536.219 74.7812 537.125 75.5469C538.031 76.3125 539.195 76.6953 540.617 76.6953Z" fill="black"/>
<rect x="603" y="526" width="173" height="49" rx="24.5" fill="#332FFF"/>
<path d="M650.531 552.586C650.32 554.391 649.652 555.785 648.527 556.77C647.41 557.746 645.922 558.234 644.062 558.234C642.047 558.234 640.43 557.512 639.211 556.066C638 554.621 637.395 552.688 637.395 550.266V548.625C637.395 547.039 637.676 545.645 638.238 544.441C638.809 543.238 639.613 542.316 640.652 541.676C641.691 541.027 642.895 540.703 644.262 540.703C646.074 540.703 647.527 541.211 648.621 542.227C649.715 543.234 650.352 544.633 650.531 546.422H648.27C648.074 545.062 647.648 544.078 646.992 543.469C646.344 542.859 645.434 542.555 644.262 542.555C642.824 542.555 641.695 543.086 640.875 544.148C640.062 545.211 639.656 546.723 639.656 548.684V550.336C639.656 552.188 640.043 553.66 640.816 554.754C641.59 555.848 642.672 556.395 644.062 556.395C645.312 556.395 646.27 556.113 646.934 555.551C647.605 554.98 648.051 553.992 648.27 552.586H650.531ZM652.699 551.543C652.699 550.301 652.941 549.184 653.426 548.191C653.918 547.199 654.598 546.434 655.465 545.895C656.34 545.355 657.336 545.086 658.453 545.086C660.18 545.086 661.574 545.684 662.637 546.879C663.707 548.074 664.242 549.664 664.242 551.648V551.801C664.242 553.035 664.004 554.145 663.527 555.129C663.059 556.105 662.383 556.867 661.5 557.414C660.625 557.961 659.617 558.234 658.477 558.234C656.758 558.234 655.363 557.637 654.293 556.441C653.23 555.246 652.699 553.664 652.699 551.695V551.543ZM654.879 551.801C654.879 553.207 655.203 554.336 655.852 555.188C656.508 556.039 657.383 556.465 658.477 556.465C659.578 556.465 660.453 556.035 661.102 555.176C661.75 554.309 662.074 553.098 662.074 551.543C662.074 550.152 661.742 549.027 661.078 548.168C660.422 547.301 659.547 546.867 658.453 546.867C657.383 546.867 656.52 547.293 655.863 548.145C655.207 548.996 654.879 550.215 654.879 551.801ZM669.012 545.32L669.082 546.914C670.051 545.695 671.316 545.086 672.879 545.086C675.559 545.086 676.91 546.598 676.934 549.621V558H674.766V549.609C674.758 548.695 674.547 548.02 674.133 547.582C673.727 547.145 673.09 546.926 672.223 546.926C671.52 546.926 670.902 547.113 670.371 547.488C669.84 547.863 669.426 548.355 669.129 548.965V558H666.961V545.32H669.012ZM680.93 558V546.996H678.926V545.32H680.93V544.242C680.93 542.828 681.332 541.727 682.137 540.938C682.949 540.148 684.094 539.754 685.57 539.754C686.445 539.754 687.551 539.992 688.887 540.469L688.523 542.297C687.547 541.906 686.617 541.711 685.734 541.711C684.805 541.711 684.133 541.922 683.719 542.344C683.312 542.758 683.109 543.383 683.109 544.219V545.32H685.699V546.996H683.109V558H680.93ZM689.965 558H687.785V545.32H689.965V558ZM699.621 547.266C699.293 547.211 698.938 547.184 698.555 547.184C697.133 547.184 696.168 547.789 695.66 549V558H693.492V545.32H695.602L695.637 546.785C696.348 545.652 697.355 545.086 698.66 545.086C699.082 545.086 699.402 545.141 699.621 545.25V547.266ZM703.664 545.32L703.723 546.727C704.652 545.633 705.906 545.086 707.484 545.086C709.258 545.086 710.465 545.766 711.105 547.125C711.527 546.516 712.074 546.023 712.746 545.648C713.426 545.273 714.227 545.086 715.148 545.086C717.93 545.086 719.344 546.559 719.391 549.504V558H717.223V549.633C717.223 548.727 717.016 548.051 716.602 547.605C716.188 547.152 715.492 546.926 714.516 546.926C713.711 546.926 713.043 547.168 712.512 547.652C711.98 548.129 711.672 548.773 711.586 549.586V558H709.406V549.691C709.406 547.848 708.504 546.926 706.699 546.926C705.277 546.926 704.305 547.531 703.781 548.742V558H701.613V545.32H703.664ZM730.5 558C730.375 557.75 730.273 557.305 730.195 556.664C729.188 557.711 727.984 558.234 726.586 558.234C725.336 558.234 724.309 557.883 723.504 557.18C722.707 556.469 722.309 555.57 722.309 554.484C722.309 553.164 722.809 552.141 723.809 551.414C724.816 550.68 726.23 550.312 728.051 550.312H730.16V549.316C730.16 548.559 729.934 547.957 729.48 547.512C729.027 547.059 728.359 546.832 727.477 546.832C726.703 546.832 726.055 547.027 725.531 547.418C725.008 547.809 724.746 548.281 724.746 548.836H722.566C722.566 548.203 722.789 547.594 723.234 547.008C723.688 546.414 724.297 545.945 725.062 545.602C725.836 545.258 726.684 545.086 727.605 545.086C729.066 545.086 730.211 545.453 731.039 546.188C731.867 546.914 732.297 547.918 732.328 549.199V555.035C732.328 556.199 732.477 557.125 732.773 557.812V558H730.5ZM726.902 556.348C727.582 556.348 728.227 556.172 728.836 555.82C729.445 555.469 729.887 555.012 730.16 554.449V551.848H728.461C725.805 551.848 724.477 552.625 724.477 554.18C724.477 554.859 724.703 555.391 725.156 555.773C725.609 556.156 726.191 556.348 726.902 556.348ZM741.855 547.266C741.527 547.211 741.172 547.184 740.789 547.184C739.367 547.184 738.402 547.789 737.895 549V558H735.727V545.32H737.836L737.871 546.785C738.582 545.652 739.59 545.086 740.895 545.086C741.316 545.086 741.637 545.141 741.855 545.25V547.266Z" fill="black"/>
</svg>
