<svg width="800" height="600" viewBox="0 0 800 600" fill="none" xmlns="http://www.w3.org/2000/svg">
<rect width="800" height="600" fill="#C4C4C4"/>
<rect x="227" y="177" width="354" height="49" rx="24.5" fill="white"/>
<rect x="227" y="261" width="354" height="49" rx="24.5" fill="white"/>
<path d="M382.531 203.586C382.32 205.391 381.652 206.785 380.527 207.77C379.41 208.746 377.922 209.234 376.062 209.234C374.047 209.234 372.43 208.512 371.211 207.066C370 205.621 369.395 203.688 369.395 201.266V199.625C369.395 198.039 369.676 196.645 370.238 195.441C370.809 194.238 371.613 193.316 372.652 192.676C373.691 192.027 374.895 191.703 376.262 191.703C378.074 191.703 379.527 192.211 380.621 193.227C381.715 194.234 382.352 195.633 382.531 197.422H380.27C380.074 196.062 379.648 195.078 378.992 194.469C378.344 193.859 377.434 193.555 376.262 193.555C374.824 193.555 373.695 194.086 372.875 195.148C372.062 196.211 371.656 197.723 371.656 199.684V201.336C371.656 203.188 372.043 204.66 372.816 205.754C373.59 206.848 374.672 207.395 376.062 207.395C377.312 207.395 378.27 207.113 378.934 206.551C379.605 205.98 380.051 204.992 380.27 203.586H382.531ZM384.699 202.543C384.699 201.301 384.941 200.184 385.426 199.191C385.918 198.199 386.598 197.434 387.465 196.895C388.34 196.355 389.336 196.086 390.453 196.086C392.18 196.086 393.574 196.684 394.637 197.879C395.707 199.074 396.242 200.664 396.242 202.648V202.801C396.242 204.035 396.004 205.145 395.527 206.129C395.059 207.105 394.383 207.867 393.5 208.414C392.625 208.961 391.617 209.234 390.477 209.234C388.758 209.234 387.363 208.637 386.293 207.441C385.23 206.246 384.699 204.664 384.699 202.695V202.543ZM386.879 202.801C386.879 204.207 387.203 205.336 387.852 206.188C388.508 207.039 389.383 207.465 390.477 207.465C391.578 207.465 392.453 207.035 393.102 206.176C393.75 205.309 394.074 204.098 394.074 202.543C394.074 201.152 393.742 200.027 393.078 199.168C392.422 198.301 391.547 197.867 390.453 197.867C389.383 197.867 388.52 198.293 387.863 199.145C387.207 199.996 386.879 201.215 386.879 202.801ZM405.09 198.266C404.762 198.211 404.406 198.184 404.023 198.184C402.602 198.184 401.637 198.789 401.129 200V209H398.961V196.32H401.07L401.105 197.785C401.816 196.652 402.824 196.086 404.129 196.086C404.551 196.086 404.871 196.141 405.09 196.25V198.266ZM413.223 198.266C412.895 198.211 412.539 198.184 412.156 198.184C410.734 198.184 409.77 198.789 409.262 200V209H407.094V196.32H409.203L409.238 197.785C409.949 196.652 410.957 196.086 412.262 196.086C412.684 196.086 413.004 196.141 413.223 196.25V198.266ZM420.254 209.234C418.535 209.234 417.137 208.672 416.059 207.547C414.98 206.414 414.441 204.902 414.441 203.012V202.613C414.441 201.355 414.68 200.234 415.156 199.25C415.641 198.258 416.312 197.484 417.172 196.93C418.039 196.367 418.977 196.086 419.984 196.086C421.633 196.086 422.914 196.629 423.828 197.715C424.742 198.801 425.199 200.355 425.199 202.379V203.281H416.609C416.641 204.531 417.004 205.543 417.699 206.316C418.402 207.082 419.293 207.465 420.371 207.465C421.137 207.465 421.785 207.309 422.316 206.996C422.848 206.684 423.312 206.27 423.711 205.754L425.035 206.785C423.973 208.418 422.379 209.234 420.254 209.234ZM419.984 197.867C419.109 197.867 418.375 198.188 417.781 198.828C417.188 199.461 416.82 200.352 416.68 201.5H423.031V201.336C422.969 200.234 422.672 199.383 422.141 198.781C421.609 198.172 420.891 197.867 419.984 197.867ZM427.145 202.543C427.145 201.301 427.387 200.184 427.871 199.191C428.363 198.199 429.043 197.434 429.91 196.895C430.785 196.355 431.781 196.086 432.898 196.086C434.625 196.086 436.02 196.684 437.082 197.879C438.152 199.074 438.688 200.664 438.688 202.648V202.801C438.688 204.035 438.449 205.145 437.973 206.129C437.504 207.105 436.828 207.867 435.945 208.414C435.07 208.961 434.062 209.234 432.922 209.234C431.203 209.234 429.809 208.637 428.738 207.441C427.676 206.246 427.145 204.664 427.145 202.695V202.543ZM429.324 202.801C429.324 204.207 429.648 205.336 430.297 206.188C430.953 207.039 431.828 207.465 432.922 207.465C434.023 207.465 434.898 207.035 435.547 206.176C436.195 205.309 436.52 204.098 436.52 202.543C436.52 201.152 436.188 200.027 435.523 199.168C434.867 198.301 433.992 197.867 432.898 197.867C431.828 197.867 430.965 198.293 430.309 199.145C429.652 199.996 429.324 201.215 429.324 202.801Z" fill="black"/>
<path d="M357.531 287.586C357.32 289.391 356.652 290.785 355.527 291.77C354.41 292.746 352.922 293.234 351.062 293.234C349.047 293.234 347.43 292.512 346.211 291.066C345 289.621 344.395 287.688 344.395 285.266V283.625C344.395 282.039 344.676 280.645 345.238 279.441C345.809 278.238 346.613 277.316 347.652 276.676C348.691 276.027 349.895 275.703 351.262 275.703C353.074 275.703 354.527 276.211 355.621 277.227C356.715 278.234 357.352 279.633 357.531 281.422H355.27C355.074 280.062 354.648 279.078 353.992 278.469C353.344 277.859 352.434 277.555 351.262 277.555C349.824 277.555 348.695 278.086 347.875 279.148C347.062 280.211 346.656 281.723 346.656 283.684V285.336C346.656 287.188 347.043 288.66 347.816 289.754C348.59 290.848 349.672 291.395 351.062 291.395C352.312 291.395 353.27 291.113 353.934 290.551C354.605 289.98 355.051 288.992 355.27 287.586H357.531ZM359.699 286.543C359.699 285.301 359.941 284.184 360.426 283.191C360.918 282.199 361.598 281.434 362.465 280.895C363.34 280.355 364.336 280.086 365.453 280.086C367.18 280.086 368.574 280.684 369.637 281.879C370.707 283.074 371.242 284.664 371.242 286.648V286.801C371.242 288.035 371.004 289.145 370.527 290.129C370.059 291.105 369.383 291.867 368.5 292.414C367.625 292.961 366.617 293.234 365.477 293.234C363.758 293.234 362.363 292.637 361.293 291.441C360.23 290.246 359.699 288.664 359.699 286.695V286.543ZM361.879 286.801C361.879 288.207 362.203 289.336 362.852 290.188C363.508 291.039 364.383 291.465 365.477 291.465C366.578 291.465 367.453 291.035 368.102 290.176C368.75 289.309 369.074 288.098 369.074 286.543C369.074 285.152 368.742 284.027 368.078 283.168C367.422 282.301 366.547 281.867 365.453 281.867C364.383 281.867 363.52 282.293 362.863 283.145C362.207 283.996 361.879 285.215 361.879 286.801ZM376.012 280.32L376.082 281.914C377.051 280.695 378.316 280.086 379.879 280.086C382.559 280.086 383.91 281.598 383.934 284.621V293H381.766V284.609C381.758 283.695 381.547 283.02 381.133 282.582C380.727 282.145 380.09 281.926 379.223 281.926C378.52 281.926 377.902 282.113 377.371 282.488C376.84 282.863 376.426 283.355 376.129 283.965V293H373.961V280.32H376.012ZM390.145 277.25V280.32H392.512V281.996H390.145V289.859C390.145 290.367 390.25 290.75 390.461 291.008C390.672 291.258 391.031 291.383 391.539 291.383C391.789 291.383 392.133 291.336 392.57 291.242V293C392 293.156 391.445 293.234 390.906 293.234C389.938 293.234 389.207 292.941 388.715 292.355C388.223 291.77 387.977 290.938 387.977 289.859V281.996H385.668V280.32H387.977V277.25H390.145ZM401.184 282.266C400.855 282.211 400.5 282.184 400.117 282.184C398.695 282.184 397.73 282.789 397.223 284V293H395.055V280.32H397.164L397.199 281.785C397.91 280.652 398.918 280.086 400.223 280.086C400.645 280.086 400.965 280.141 401.184 280.25V282.266ZM410.547 293C410.422 292.75 410.32 292.305 410.242 291.664C409.234 292.711 408.031 293.234 406.633 293.234C405.383 293.234 404.355 292.883 403.551 292.18C402.754 291.469 402.355 290.57 402.355 289.484C402.355 288.164 402.855 287.141 403.855 286.414C404.863 285.68 406.277 285.312 408.098 285.312H410.207V284.316C410.207 283.559 409.98 282.957 409.527 282.512C409.074 282.059 408.406 281.832 407.523 281.832C406.75 281.832 406.102 282.027 405.578 282.418C405.055 282.809 404.793 283.281 404.793 283.836H402.613C402.613 283.203 402.836 282.594 403.281 282.008C403.734 281.414 404.344 280.945 405.109 280.602C405.883 280.258 406.73 280.086 407.652 280.086C409.113 280.086 410.258 280.453 411.086 281.188C411.914 281.914 412.344 282.918 412.375 284.199V290.035C412.375 291.199 412.523 292.125 412.82 292.812V293H410.547ZM406.949 291.348C407.629 291.348 408.273 291.172 408.883 290.82C409.492 290.469 409.934 290.012 410.207 289.449V286.848H408.508C405.852 286.848 404.523 287.625 404.523 289.18C404.523 289.859 404.75 290.391 405.203 290.773C405.656 291.156 406.238 291.348 406.949 291.348ZM423.156 289.637C423.156 289.051 422.934 288.598 422.488 288.277C422.051 287.949 421.281 287.668 420.18 287.434C419.086 287.199 418.215 286.918 417.566 286.59C416.926 286.262 416.449 285.871 416.137 285.418C415.832 284.965 415.68 284.426 415.68 283.801C415.68 282.762 416.117 281.883 416.992 281.164C417.875 280.445 419 280.086 420.367 280.086C421.805 280.086 422.969 280.457 423.859 281.199C424.758 281.941 425.207 282.891 425.207 284.047H423.027C423.027 283.453 422.773 282.941 422.266 282.512C421.766 282.082 421.133 281.867 420.367 281.867C419.578 281.867 418.961 282.039 418.516 282.383C418.07 282.727 417.848 283.176 417.848 283.73C417.848 284.254 418.055 284.648 418.469 284.914C418.883 285.18 419.629 285.434 420.707 285.676C421.793 285.918 422.672 286.207 423.344 286.543C424.016 286.879 424.512 287.285 424.832 287.762C425.16 288.23 425.324 288.805 425.324 289.484C425.324 290.617 424.871 291.527 423.965 292.215C423.059 292.895 421.883 293.234 420.438 293.234C419.422 293.234 418.523 293.055 417.742 292.695C416.961 292.336 416.348 291.836 415.902 291.195C415.465 290.547 415.246 289.848 415.246 289.098H417.414C417.453 289.824 417.742 290.402 418.281 290.832C418.828 291.254 419.547 291.465 420.438 291.465C421.258 291.465 421.914 291.301 422.406 290.973C422.906 290.637 423.156 290.191 423.156 289.637ZM433.41 293.234C431.691 293.234 430.293 292.672 429.215 291.547C428.137 290.414 427.598 288.902 427.598 287.012V286.613C427.598 285.355 427.836 284.234 428.312 283.25C428.797 282.258 429.469 281.484 430.328 280.93C431.195 280.367 432.133 280.086 433.141 280.086C434.789 280.086 436.07 280.629 436.984 281.715C437.898 282.801 438.355 284.355 438.355 286.379V287.281H429.766C429.797 288.531 430.16 289.543 430.855 290.316C431.559 291.082 432.449 291.465 433.527 291.465C434.293 291.465 434.941 291.309 435.473 290.996C436.004 290.684 436.469 290.27 436.867 289.754L438.191 290.785C437.129 292.418 435.535 293.234 433.41 293.234ZM433.141 281.867C432.266 281.867 431.531 282.188 430.938 282.828C430.344 283.461 429.977 284.352 429.836 285.5H436.188V285.336C436.125 284.234 435.828 283.383 435.297 282.781C434.766 282.172 434.047 281.867 433.141 281.867ZM442.926 280.32L442.996 281.914C443.965 280.695 445.23 280.086 446.793 280.086C449.473 280.086 450.824 281.598 450.848 284.621V293H448.68V284.609C448.672 283.695 448.461 283.02 448.047 282.582C447.641 282.145 447.004 281.926 446.137 281.926C445.434 281.926 444.816 282.113 444.285 282.488C443.754 282.863 443.34 283.355 443.043 283.965V293H440.875V280.32H442.926ZM450.098 275.375C450.098 276.219 449.855 276.902 449.371 277.426C448.895 277.949 448.297 278.211 447.578 278.211C447.258 278.211 446.98 278.172 446.746 278.094C446.512 278.016 446.203 277.855 445.82 277.613C445.445 277.371 445.172 277.227 445 277.18C444.836 277.125 444.645 277.098 444.426 277.098C444.105 277.098 443.832 277.223 443.605 277.473C443.379 277.715 443.266 278.027 443.266 278.41L441.812 278.328C441.812 277.492 442.047 276.801 442.516 276.254C442.992 275.707 443.594 275.434 444.32 275.434C444.594 275.434 444.84 275.473 445.059 275.551C445.277 275.629 445.574 275.781 445.949 276.008C446.324 276.234 446.609 276.383 446.805 276.453C447.008 276.523 447.23 276.559 447.473 276.559C447.809 276.559 448.086 276.426 448.305 276.16C448.531 275.895 448.645 275.586 448.645 275.234L450.098 275.375ZM461.945 293C461.82 292.75 461.719 292.305 461.641 291.664C460.633 292.711 459.43 293.234 458.031 293.234C456.781 293.234 455.754 292.883 454.949 292.18C454.152 291.469 453.754 290.57 453.754 289.484C453.754 288.164 454.254 287.141 455.254 286.414C456.262 285.68 457.676 285.312 459.496 285.312H461.605V284.316C461.605 283.559 461.379 282.957 460.926 282.512C460.473 282.059 459.805 281.832 458.922 281.832C458.148 281.832 457.5 282.027 456.977 282.418C456.453 282.809 456.191 283.281 456.191 283.836H454.012C454.012 283.203 454.234 282.594 454.68 282.008C455.133 281.414 455.742 280.945 456.508 280.602C457.281 280.258 458.129 280.086 459.051 280.086C460.512 280.086 461.656 280.453 462.484 281.188C463.312 281.914 463.742 282.918 463.773 284.199V290.035C463.773 291.199 463.922 292.125 464.219 292.812V293H461.945ZM458.348 291.348C459.027 291.348 459.672 291.172 460.281 290.82C460.891 290.469 461.332 290.012 461.605 289.449V286.848H459.906C457.25 286.848 455.922 287.625 455.922 289.18C455.922 289.859 456.148 290.391 456.602 290.773C457.055 291.156 457.637 291.348 458.348 291.348Z" fill="black"/>
<rect x="227" y="366" width="173" height="49" rx="24.5" fill="#00B2FF"/>
<rect x="408" y="366" width="173" height="49" rx="24.5" fill="#332FFF"/>
<path d="M455.179 391.823H452.173V397H450.477V384.203H454.713C456.154 384.203 457.262 384.531 458.035 385.188C458.814 385.844 459.204 386.799 459.204 388.053C459.204 388.85 458.987 389.544 458.554 390.136C458.126 390.728 457.528 391.17 456.761 391.463L459.767 396.895V397H457.956L455.179 391.823ZM452.173 390.443H454.766C455.604 390.443 456.269 390.227 456.761 389.793C457.259 389.359 457.508 388.779 457.508 388.053C457.508 387.262 457.271 386.655 456.796 386.233C456.327 385.812 455.647 385.598 454.757 385.592H452.173V390.443ZM465.269 397.176C463.979 397.176 462.931 396.754 462.122 395.91C461.313 395.061 460.909 393.927 460.909 392.509V392.21C460.909 391.267 461.088 390.426 461.445 389.688C461.809 388.943 462.312 388.363 462.957 387.947C463.607 387.525 464.311 387.314 465.066 387.314C466.303 387.314 467.264 387.722 467.949 388.536C468.635 389.351 468.978 390.517 468.978 392.034V392.711H462.535C462.559 393.648 462.831 394.407 463.353 394.987C463.88 395.562 464.548 395.849 465.356 395.849C465.931 395.849 466.417 395.731 466.815 395.497C467.214 395.263 467.562 394.952 467.861 394.565L468.854 395.339C468.058 396.563 466.862 397.176 465.269 397.176ZM465.066 388.65C464.41 388.65 463.859 388.891 463.414 389.371C462.969 389.846 462.693 390.514 462.588 391.375H467.352V391.252C467.305 390.426 467.082 389.787 466.684 389.336C466.285 388.879 465.746 388.65 465.066 388.65ZM470.48 392.166C470.48 390.684 470.823 389.506 471.509 388.633C472.194 387.754 473.103 387.314 474.233 387.314C475.394 387.314 476.299 387.725 476.949 388.545L477.028 387.49H478.514V396.771C478.514 398.002 478.147 398.972 477.415 399.681C476.688 400.39 475.71 400.744 474.479 400.744C473.794 400.744 473.123 400.598 472.467 400.305C471.811 400.012 471.31 399.61 470.964 399.101L471.808 398.125C472.505 398.986 473.357 399.417 474.365 399.417C475.156 399.417 475.771 399.194 476.211 398.749C476.656 398.304 476.879 397.677 476.879 396.868V396.051C476.229 396.801 475.341 397.176 474.216 397.176C473.103 397.176 472.2 396.728 471.509 395.831C470.823 394.935 470.48 393.713 470.48 392.166ZM472.115 392.351C472.115 393.423 472.335 394.267 472.774 394.882C473.214 395.491 473.829 395.796 474.62 395.796C475.646 395.796 476.398 395.33 476.879 394.398V390.057C476.381 389.148 475.634 388.694 474.638 388.694C473.847 388.694 473.229 389.002 472.783 389.617C472.338 390.232 472.115 391.144 472.115 392.351ZM482.741 397H481.115V387.49H482.741V397ZM480.983 384.968C480.983 384.704 481.062 384.481 481.221 384.3C481.385 384.118 481.625 384.027 481.941 384.027C482.258 384.027 482.498 384.118 482.662 384.3C482.826 384.481 482.908 384.704 482.908 384.968C482.908 385.231 482.826 385.451 482.662 385.627C482.498 385.803 482.258 385.891 481.941 385.891C481.625 385.891 481.385 385.803 481.221 385.627C481.062 385.451 480.983 385.231 480.983 384.968ZM490.889 394.478C490.889 394.038 490.722 393.698 490.388 393.458C490.06 393.212 489.482 393.001 488.656 392.825C487.836 392.649 487.183 392.438 486.696 392.192C486.216 391.946 485.858 391.653 485.624 391.313C485.396 390.974 485.281 390.569 485.281 390.101C485.281 389.321 485.609 388.662 486.266 388.123C486.928 387.584 487.771 387.314 488.797 387.314C489.875 387.314 490.748 387.593 491.416 388.149C492.09 388.706 492.427 389.418 492.427 390.285H490.792C490.792 389.84 490.602 389.456 490.221 389.134C489.846 388.812 489.371 388.65 488.797 388.65C488.205 388.65 487.742 388.779 487.408 389.037C487.074 389.295 486.907 389.632 486.907 390.048C486.907 390.44 487.062 390.736 487.373 390.936C487.684 391.135 488.243 391.325 489.052 391.507C489.866 391.688 490.525 391.905 491.029 392.157C491.533 392.409 491.905 392.714 492.146 393.071C492.392 393.423 492.515 393.854 492.515 394.363C492.515 395.213 492.175 395.896 491.495 396.411C490.815 396.921 489.934 397.176 488.85 397.176C488.088 397.176 487.414 397.041 486.828 396.771C486.242 396.502 485.782 396.127 485.448 395.646C485.12 395.16 484.956 394.636 484.956 394.073H486.582C486.611 394.618 486.828 395.052 487.232 395.374C487.643 395.69 488.182 395.849 488.85 395.849C489.465 395.849 489.957 395.726 490.326 395.479C490.701 395.228 490.889 394.894 490.889 394.478ZM496.839 385.188V387.49H498.614V388.747H496.839V394.645C496.839 395.025 496.918 395.312 497.076 395.506C497.234 395.693 497.504 395.787 497.885 395.787C498.072 395.787 498.33 395.752 498.658 395.682V397C498.23 397.117 497.814 397.176 497.41 397.176C496.684 397.176 496.136 396.956 495.767 396.517C495.397 396.077 495.213 395.453 495.213 394.645V388.747H493.481V387.49H495.213V385.188H496.839ZM505.118 388.949C504.872 388.908 504.605 388.888 504.318 388.888C503.252 388.888 502.528 389.342 502.147 390.25V397H500.521V387.49H502.104L502.13 388.589C502.663 387.739 503.419 387.314 504.397 387.314C504.714 387.314 504.954 387.355 505.118 387.438V388.949ZM512.141 397C512.047 396.812 511.971 396.479 511.912 395.998C511.156 396.783 510.254 397.176 509.205 397.176C508.268 397.176 507.497 396.912 506.894 396.385C506.296 395.852 505.997 395.178 505.997 394.363C505.997 393.373 506.372 392.605 507.122 392.061C507.878 391.51 508.938 391.234 510.304 391.234H511.886V390.487C511.886 389.919 511.716 389.468 511.376 389.134C511.036 388.794 510.535 388.624 509.873 388.624C509.293 388.624 508.807 388.771 508.414 389.063C508.021 389.356 507.825 389.711 507.825 390.127H506.19C506.19 389.652 506.357 389.195 506.691 388.756C507.031 388.311 507.488 387.959 508.062 387.701C508.643 387.443 509.278 387.314 509.97 387.314C511.065 387.314 511.924 387.59 512.545 388.141C513.166 388.686 513.488 389.438 513.512 390.399V394.776C513.512 395.649 513.623 396.344 513.846 396.859V397H512.141ZM509.442 395.761C509.952 395.761 510.436 395.629 510.893 395.365C511.35 395.102 511.681 394.759 511.886 394.337V392.386H510.611C508.619 392.386 507.623 392.969 507.623 394.135C507.623 394.645 507.793 395.043 508.133 395.33C508.473 395.617 508.909 395.761 509.442 395.761ZM520.657 388.949C520.411 388.908 520.145 388.888 519.857 388.888C518.791 388.888 518.067 389.342 517.687 390.25V397H516.061V387.49H517.643L517.669 388.589C518.202 387.739 518.958 387.314 519.937 387.314C520.253 387.314 520.493 387.355 520.657 387.438V388.949ZM527.697 394.478C527.697 394.038 527.53 393.698 527.196 393.458C526.868 393.212 526.291 393.001 525.465 392.825C524.645 392.649 523.991 392.438 523.505 392.192C523.024 391.946 522.667 391.653 522.433 391.313C522.204 390.974 522.09 390.569 522.09 390.101C522.09 389.321 522.418 388.662 523.074 388.123C523.736 387.584 524.58 387.314 525.605 387.314C526.684 387.314 527.557 387.593 528.225 388.149C528.898 388.706 529.235 389.418 529.235 390.285H527.601C527.601 389.84 527.41 389.456 527.029 389.134C526.654 388.812 526.18 388.65 525.605 388.65C525.014 388.65 524.551 388.779 524.217 389.037C523.883 389.295 523.716 389.632 523.716 390.048C523.716 390.44 523.871 390.736 524.182 390.936C524.492 391.135 525.052 391.325 525.86 391.507C526.675 391.688 527.334 391.905 527.838 392.157C528.342 392.409 528.714 392.714 528.954 393.071C529.2 393.423 529.323 393.854 529.323 394.363C529.323 395.213 528.983 395.896 528.304 396.411C527.624 396.921 526.742 397.176 525.658 397.176C524.896 397.176 524.223 397.041 523.637 396.771C523.051 396.502 522.591 396.127 522.257 395.646C521.929 395.16 521.765 394.636 521.765 394.073H523.391C523.42 394.618 523.637 395.052 524.041 395.374C524.451 395.69 524.99 395.849 525.658 395.849C526.273 395.849 526.766 395.726 527.135 395.479C527.51 395.228 527.697 394.894 527.697 394.478ZM535.388 397.176C534.099 397.176 533.05 396.754 532.241 395.91C531.433 395.061 531.028 393.927 531.028 392.509V392.21C531.028 391.267 531.207 390.426 531.564 389.688C531.928 388.943 532.432 388.363 533.076 387.947C533.727 387.525 534.43 387.314 535.186 387.314C536.422 387.314 537.383 387.722 538.068 388.536C538.754 389.351 539.097 390.517 539.097 392.034V392.711H532.654C532.678 393.648 532.95 394.407 533.472 394.987C533.999 395.562 534.667 395.849 535.476 395.849C536.05 395.849 536.536 395.731 536.935 395.497C537.333 395.263 537.682 394.952 537.98 394.565L538.974 395.339C538.177 396.563 536.981 397.176 535.388 397.176ZM535.186 388.65C534.529 388.65 533.979 388.891 533.533 389.371C533.088 389.846 532.812 390.514 532.707 391.375H537.471V391.252C537.424 390.426 537.201 389.787 536.803 389.336C536.404 388.879 535.865 388.65 535.186 388.65Z" fill="black"/>
<path d="M346.445 324.016C346.441 324.43 346.398 324.762 346.316 325.012C346.238 325.258 346.105 325.496 345.918 325.727C345.73 325.957 345.457 326.262 345.098 326.641C344.738 327.016 344.537 327.396 344.494 327.783L344.482 328C344.482 328.426 344.596 328.75 344.822 328.973C345.049 329.199 345.375 329.312 345.801 329.312C346.191 329.312 346.508 329.201 346.75 328.979C346.996 328.76 347.119 328.473 347.119 328.117H348.203C348.195 328.746 347.971 329.26 347.529 329.658C347.092 330.057 346.516 330.256 345.801 330.256C345.035 330.256 344.443 330.059 344.025 329.664C343.607 329.273 343.398 328.729 343.398 328.029C343.398 327.354 343.711 326.674 344.336 325.99L344.975 325.328C345.232 325.023 345.361 324.586 345.361 324.016H346.445ZM346.492 322.158C346.492 322.334 346.438 322.482 346.328 322.604C346.223 322.725 346.064 322.785 345.854 322.785C345.643 322.785 345.482 322.725 345.373 322.604C345.264 322.482 345.209 322.334 345.209 322.158C345.209 321.986 345.264 321.842 345.373 321.725C345.482 321.607 345.643 321.549 345.854 321.549C346.064 321.549 346.223 321.607 346.328 321.725C346.438 321.842 346.492 321.986 346.492 322.158ZM356.236 324.01C356.236 324.846 356.096 325.576 355.814 326.201C355.533 326.822 355.135 327.297 354.619 327.625C354.104 327.953 353.502 328.117 352.814 328.117C352.143 328.117 351.547 327.953 351.027 327.625C350.508 327.293 350.104 326.822 349.814 326.213C349.529 325.6 349.383 324.891 349.375 324.086V323.471C349.375 322.65 349.518 321.926 349.803 321.297C350.088 320.668 350.49 320.188 351.01 319.855C351.533 319.52 352.131 319.352 352.803 319.352C353.486 319.352 354.088 319.518 354.607 319.85C355.131 320.178 355.533 320.656 355.814 321.285C356.096 321.91 356.236 322.639 356.236 323.471V324.01ZM355.117 323.459C355.117 322.447 354.914 321.672 354.508 321.133C354.102 320.59 353.533 320.318 352.803 320.318C352.092 320.318 351.531 320.59 351.121 321.133C350.715 321.672 350.506 322.422 350.494 323.383V324.01C350.494 324.99 350.699 325.762 351.109 326.324C351.523 326.883 352.092 327.162 352.814 327.162C353.541 327.162 354.104 326.898 354.502 326.371C354.9 325.84 355.105 325.08 355.117 324.092V323.459ZM358.932 328H357.848V319H358.932V328ZM362.764 326.529L364.334 321.66H365.441L363.168 328H362.342L360.045 321.66H361.152L362.764 326.529ZM367.662 328H366.578V321.66H367.662V328ZM366.49 319.979C366.49 319.803 366.543 319.654 366.648 319.533C366.758 319.412 366.918 319.352 367.129 319.352C367.34 319.352 367.5 319.412 367.609 319.533C367.719 319.654 367.773 319.803 367.773 319.979C367.773 320.154 367.719 320.301 367.609 320.418C367.5 320.535 367.34 320.594 367.129 320.594C366.918 320.594 366.758 320.535 366.648 320.418C366.543 320.301 366.49 320.154 366.49 319.979ZM369.139 324.777C369.139 323.805 369.369 323.023 369.83 322.434C370.291 321.84 370.895 321.543 371.641 321.543C372.383 321.543 372.971 321.797 373.404 322.305V319H374.488V328H373.492L373.439 327.32C373.006 327.852 372.402 328.117 371.629 328.117C370.895 328.117 370.295 327.816 369.83 327.215C369.369 326.613 369.139 325.828 369.139 324.859V324.777ZM370.223 324.9C370.223 325.619 370.371 326.182 370.668 326.588C370.965 326.994 371.375 327.197 371.898 327.197C372.586 327.197 373.088 326.889 373.404 326.271V323.359C373.08 322.762 372.582 322.463 371.91 322.463C371.379 322.463 370.965 322.668 370.668 323.078C370.371 323.488 370.223 324.096 370.223 324.9ZM375.889 324.771C375.889 324.15 376.01 323.592 376.252 323.096C376.498 322.6 376.838 322.217 377.271 321.947C377.709 321.678 378.207 321.543 378.766 321.543C379.629 321.543 380.326 321.842 380.857 322.439C381.393 323.037 381.66 323.832 381.66 324.824V324.9C381.66 325.518 381.541 326.072 381.303 326.564C381.068 327.053 380.73 327.434 380.289 327.707C379.852 327.98 379.348 328.117 378.777 328.117C377.918 328.117 377.221 327.818 376.686 327.221C376.154 326.623 375.889 325.832 375.889 324.848V324.771ZM376.979 324.9C376.979 325.604 377.141 326.168 377.465 326.594C377.793 327.02 378.23 327.232 378.777 327.232C379.328 327.232 379.766 327.018 380.09 326.588C380.414 326.154 380.576 325.549 380.576 324.771C380.576 324.076 380.41 323.514 380.078 323.084C379.75 322.65 379.312 322.434 378.766 322.434C378.23 322.434 377.799 322.646 377.471 323.072C377.143 323.498 376.979 324.107 376.979 324.9ZM389.688 326.318C389.688 326.025 389.576 325.799 389.354 325.639C389.135 325.475 388.75 325.334 388.199 325.217C387.652 325.1 387.217 324.959 386.893 324.795C386.572 324.631 386.334 324.436 386.178 324.209C386.025 323.982 385.949 323.713 385.949 323.4C385.949 322.881 386.168 322.441 386.605 322.082C387.047 321.723 387.609 321.543 388.293 321.543C389.012 321.543 389.594 321.729 390.039 322.1C390.488 322.471 390.713 322.945 390.713 323.523H389.623C389.623 323.227 389.496 322.971 389.242 322.756C388.992 322.541 388.676 322.434 388.293 322.434C387.898 322.434 387.59 322.52 387.367 322.691C387.145 322.863 387.033 323.088 387.033 323.365C387.033 323.627 387.137 323.824 387.344 323.957C387.551 324.09 387.924 324.217 388.463 324.338C389.006 324.459 389.445 324.604 389.781 324.771C390.117 324.939 390.365 325.143 390.525 325.381C390.689 325.615 390.771 325.902 390.771 326.242C390.771 326.809 390.545 327.264 390.092 327.607C389.639 327.947 389.051 328.117 388.328 328.117C387.82 328.117 387.371 328.027 386.98 327.848C386.59 327.668 386.283 327.418 386.061 327.098C385.842 326.773 385.732 326.424 385.732 326.049H386.816C386.836 326.412 386.98 326.701 387.25 326.916C387.523 327.127 387.883 327.232 388.328 327.232C388.738 327.232 389.066 327.15 389.312 326.986C389.562 326.818 389.688 326.596 389.688 326.318ZM396.098 327.373C395.676 327.869 395.057 328.117 394.24 328.117C393.564 328.117 393.049 327.922 392.693 327.531C392.342 327.137 392.164 326.555 392.16 325.785V321.66H393.244V325.756C393.244 326.717 393.635 327.197 394.416 327.197C395.244 327.197 395.795 326.889 396.068 326.271V321.66H397.152V328H396.121L396.098 327.373ZM404.324 327.232C404.711 327.232 405.049 327.115 405.338 326.881C405.627 326.646 405.787 326.354 405.818 326.002H406.844C406.824 326.365 406.699 326.711 406.469 327.039C406.238 327.367 405.93 327.629 405.543 327.824C405.16 328.02 404.754 328.117 404.324 328.117C403.461 328.117 402.773 327.83 402.262 327.256C401.754 326.678 401.5 325.889 401.5 324.889V324.707C401.5 324.09 401.613 323.541 401.84 323.061C402.066 322.58 402.391 322.207 402.812 321.941C403.238 321.676 403.74 321.543 404.318 321.543C405.029 321.543 405.619 321.756 406.088 322.182C406.561 322.607 406.812 323.16 406.844 323.84H405.818C405.787 323.43 405.631 323.094 405.35 322.832C405.072 322.566 404.729 322.434 404.318 322.434C403.768 322.434 403.34 322.633 403.035 323.031C402.734 323.426 402.584 323.998 402.584 324.748V324.953C402.584 325.684 402.734 326.246 403.035 326.641C403.336 327.035 403.766 327.232 404.324 327.232ZM407.775 324.771C407.775 324.15 407.896 323.592 408.139 323.096C408.385 322.6 408.725 322.217 409.158 321.947C409.596 321.678 410.094 321.543 410.652 321.543C411.516 321.543 412.213 321.842 412.744 322.439C413.279 323.037 413.547 323.832 413.547 324.824V324.9C413.547 325.518 413.428 326.072 413.189 326.564C412.955 327.053 412.617 327.434 412.176 327.707C411.738 327.98 411.234 328.117 410.664 328.117C409.805 328.117 409.107 327.818 408.572 327.221C408.041 326.623 407.775 325.832 407.775 324.848V324.771ZM408.865 324.9C408.865 325.604 409.027 326.168 409.352 326.594C409.68 327.02 410.117 327.232 410.664 327.232C411.215 327.232 411.652 327.018 411.977 326.588C412.301 326.154 412.463 325.549 412.463 324.771C412.463 324.076 412.297 323.514 411.965 323.084C411.637 322.65 411.199 322.434 410.652 322.434C410.117 322.434 409.686 322.646 409.357 323.072C409.029 323.498 408.865 324.107 408.865 324.9ZM415.932 321.66L415.967 322.457C416.451 321.848 417.084 321.543 417.865 321.543C419.205 321.543 419.881 322.299 419.893 323.811V328H418.809V323.805C418.805 323.348 418.699 323.01 418.492 322.791C418.289 322.572 417.971 322.463 417.537 322.463C417.186 322.463 416.877 322.557 416.611 322.744C416.346 322.932 416.139 323.178 415.99 323.482V328H414.906V321.66H415.932ZM422.998 320.125V321.66H424.182V322.498H422.998V326.43C422.998 326.684 423.051 326.875 423.156 327.004C423.262 327.129 423.441 327.191 423.695 327.191C423.82 327.191 423.992 327.168 424.211 327.121V328C423.926 328.078 423.648 328.117 423.379 328.117C422.895 328.117 422.529 327.971 422.283 327.678C422.037 327.385 421.914 326.969 421.914 326.43V322.498H420.76V321.66H421.914V320.125H422.998ZM428.518 322.633C428.354 322.605 428.176 322.592 427.984 322.592C427.273 322.592 426.791 322.895 426.537 323.5V328H425.453V321.66H426.508L426.525 322.393C426.881 321.826 427.385 321.543 428.037 321.543C428.248 321.543 428.408 321.57 428.518 321.625V322.633ZM433.199 328C433.137 327.875 433.086 327.652 433.047 327.332C432.543 327.855 431.941 328.117 431.242 328.117C430.617 328.117 430.104 327.941 429.701 327.59C429.303 327.234 429.104 326.785 429.104 326.242C429.104 325.582 429.354 325.07 429.854 324.707C430.357 324.34 431.064 324.156 431.975 324.156H433.029V323.658C433.029 323.279 432.916 322.979 432.689 322.756C432.463 322.529 432.129 322.416 431.688 322.416C431.301 322.416 430.977 322.514 430.715 322.709C430.453 322.904 430.322 323.141 430.322 323.418H429.232C429.232 323.102 429.344 322.797 429.566 322.504C429.793 322.207 430.098 321.973 430.48 321.801C430.867 321.629 431.291 321.543 431.752 321.543C432.482 321.543 433.055 321.727 433.469 322.094C433.883 322.457 434.098 322.959 434.113 323.6V326.518C434.113 327.1 434.188 327.562 434.336 327.906V328H433.199ZM431.4 327.174C431.74 327.174 432.062 327.086 432.367 326.91C432.672 326.734 432.893 326.506 433.029 326.225V324.924H432.18C430.852 324.924 430.188 325.312 430.188 326.09C430.188 326.43 430.301 326.695 430.527 326.887C430.754 327.078 431.045 327.174 431.4 327.174ZM439.504 326.318C439.504 326.025 439.393 325.799 439.17 325.639C438.951 325.475 438.566 325.334 438.016 325.217C437.469 325.1 437.033 324.959 436.709 324.795C436.389 324.631 436.15 324.436 435.994 324.209C435.842 323.982 435.766 323.713 435.766 323.4C435.766 322.881 435.984 322.441 436.422 322.082C436.863 321.723 437.426 321.543 438.109 321.543C438.828 321.543 439.41 321.729 439.855 322.1C440.305 322.471 440.529 322.945 440.529 323.523H439.439C439.439 323.227 439.312 322.971 439.059 322.756C438.809 322.541 438.492 322.434 438.109 322.434C437.715 322.434 437.406 322.52 437.184 322.691C436.961 322.863 436.85 323.088 436.85 323.365C436.85 323.627 436.953 323.824 437.16 323.957C437.367 324.09 437.74 324.217 438.279 324.338C438.822 324.459 439.262 324.604 439.598 324.771C439.934 324.939 440.182 325.143 440.342 325.381C440.506 325.615 440.588 325.902 440.588 326.242C440.588 326.809 440.361 327.264 439.908 327.607C439.455 327.947 438.867 328.117 438.145 328.117C437.637 328.117 437.188 328.027 436.797 327.848C436.406 327.668 436.1 327.418 435.877 327.098C435.658 326.773 435.549 326.424 435.549 326.049H436.633C436.652 326.412 436.797 326.701 437.066 326.916C437.34 327.127 437.699 327.232 438.145 327.232C438.555 327.232 438.883 327.15 439.129 326.986C439.379 326.818 439.504 326.596 439.504 326.318ZM444.631 328.117C443.771 328.117 443.072 327.836 442.533 327.273C441.994 326.707 441.725 325.951 441.725 325.006V324.807C441.725 324.178 441.844 323.617 442.082 323.125C442.324 322.629 442.66 322.242 443.09 321.965C443.523 321.684 443.992 321.543 444.496 321.543C445.32 321.543 445.961 321.814 446.418 322.357C446.875 322.9 447.104 323.678 447.104 324.689V325.141H442.809C442.824 325.766 443.006 326.271 443.354 326.658C443.705 327.041 444.15 327.232 444.689 327.232C445.072 327.232 445.396 327.154 445.662 326.998C445.928 326.842 446.16 326.635 446.359 326.377L447.021 326.893C446.49 327.709 445.693 328.117 444.631 328.117ZM444.496 322.434C444.059 322.434 443.691 322.594 443.395 322.914C443.098 323.23 442.914 323.676 442.844 324.25H446.02V324.168C445.988 323.617 445.84 323.191 445.574 322.891C445.309 322.586 444.949 322.434 444.496 322.434ZM449.389 321.66L449.424 322.457C449.908 321.848 450.541 321.543 451.322 321.543C452.662 321.543 453.338 322.299 453.35 323.811V328H452.266V323.805C452.262 323.348 452.156 323.01 451.949 322.791C451.746 322.572 451.428 322.463 450.994 322.463C450.643 322.463 450.334 322.557 450.068 322.744C449.803 322.932 449.596 323.178 449.447 323.482V328H448.363V321.66H449.389ZM452.975 319.188C452.975 319.609 452.854 319.951 452.611 320.213C452.373 320.475 452.074 320.605 451.715 320.605C451.555 320.605 451.416 320.586 451.299 320.547C451.182 320.508 451.027 320.428 450.836 320.307C450.648 320.186 450.512 320.113 450.426 320.09C450.344 320.062 450.248 320.049 450.139 320.049C449.979 320.049 449.842 320.111 449.729 320.236C449.615 320.357 449.559 320.514 449.559 320.705L448.832 320.664C448.832 320.246 448.949 319.9 449.184 319.627C449.422 319.354 449.723 319.217 450.086 319.217C450.223 319.217 450.346 319.236 450.455 319.275C450.564 319.314 450.713 319.391 450.9 319.504C451.088 319.617 451.23 319.691 451.328 319.727C451.43 319.762 451.541 319.779 451.662 319.779C451.83 319.779 451.969 319.713 452.078 319.58C452.191 319.447 452.248 319.293 452.248 319.117L452.975 319.188ZM458.898 328C458.836 327.875 458.785 327.652 458.746 327.332C458.242 327.855 457.641 328.117 456.941 328.117C456.316 328.117 455.803 327.941 455.4 327.59C455.002 327.234 454.803 326.785 454.803 326.242C454.803 325.582 455.053 325.07 455.553 324.707C456.057 324.34 456.764 324.156 457.674 324.156H458.729V323.658C458.729 323.279 458.615 322.979 458.389 322.756C458.162 322.529 457.828 322.416 457.387 322.416C457 322.416 456.676 322.514 456.414 322.709C456.152 322.904 456.021 323.141 456.021 323.418H454.932C454.932 323.102 455.043 322.797 455.266 322.504C455.492 322.207 455.797 321.973 456.18 321.801C456.566 321.629 456.99 321.543 457.451 321.543C458.182 321.543 458.754 321.727 459.168 322.094C459.582 322.457 459.797 322.959 459.812 323.6V326.518C459.812 327.1 459.887 327.562 460.035 327.906V328H458.898ZM457.1 327.174C457.439 327.174 457.762 327.086 458.066 326.91C458.371 326.734 458.592 326.506 458.729 326.225V324.924H457.879C456.551 324.924 455.887 325.312 455.887 326.09C455.887 326.43 456 326.695 456.227 326.887C456.453 327.078 456.744 327.174 457.1 327.174ZM462.783 325.598C462.791 325.133 462.844 324.766 462.941 324.496C463.039 324.227 463.238 323.928 463.539 323.6L464.307 322.809C464.635 322.438 464.799 322.039 464.799 321.613C464.799 321.203 464.691 320.883 464.477 320.652C464.262 320.418 463.949 320.301 463.539 320.301C463.141 320.301 462.82 320.406 462.578 320.617C462.336 320.828 462.215 321.111 462.215 321.467H461.131C461.139 320.834 461.363 320.324 461.805 319.938C462.25 319.547 462.828 319.352 463.539 319.352C464.277 319.352 464.852 319.551 465.262 319.949C465.676 320.344 465.883 320.887 465.883 321.578C465.883 322.262 465.566 322.936 464.934 323.6L464.295 324.232C464.01 324.549 463.867 325.004 463.867 325.598H462.783ZM462.736 327.455C462.736 327.279 462.789 327.133 462.895 327.016C463.004 326.895 463.164 326.834 463.375 326.834C463.586 326.834 463.746 326.895 463.855 327.016C463.965 327.133 464.02 327.279 464.02 327.455C464.02 327.631 463.965 327.777 463.855 327.895C463.746 328.008 463.586 328.064 463.375 328.064C463.164 328.064 463.004 328.008 462.895 327.895C462.789 327.777 462.736 327.631 462.736 327.455Z" fill="black"/>
<path d="M262.296 397H260.608V384.203H262.296V397ZM266.673 387.49L266.726 388.686C267.452 387.771 268.401 387.314 269.573 387.314C271.583 387.314 272.597 388.448 272.614 390.716V397H270.988V390.707C270.982 390.021 270.824 389.515 270.514 389.187C270.209 388.858 269.731 388.694 269.081 388.694C268.554 388.694 268.091 388.835 267.692 389.116C267.294 389.397 266.983 389.767 266.761 390.224V397H265.135V387.49H266.673ZM276.833 397H275.207V387.49H276.833V397ZM275.075 384.968C275.075 384.704 275.154 384.481 275.312 384.3C275.477 384.118 275.717 384.027 276.033 384.027C276.35 384.027 276.59 384.118 276.754 384.3C276.918 384.481 277 384.704 277 384.968C277 385.231 276.918 385.451 276.754 385.627C276.59 385.803 276.35 385.891 276.033 385.891C275.717 385.891 275.477 385.803 275.312 385.627C275.154 385.451 275.075 385.231 275.075 384.968ZM283.258 395.849C283.838 395.849 284.345 395.673 284.778 395.321C285.212 394.97 285.452 394.53 285.499 394.003H287.037C287.008 394.548 286.82 395.066 286.475 395.559C286.129 396.051 285.666 396.443 285.086 396.736C284.512 397.029 283.902 397.176 283.258 397.176C281.963 397.176 280.932 396.745 280.164 395.884C279.402 395.017 279.021 393.833 279.021 392.333V392.061C279.021 391.135 279.191 390.312 279.531 389.591C279.871 388.87 280.357 388.311 280.99 387.912C281.629 387.514 282.382 387.314 283.249 387.314C284.315 387.314 285.2 387.634 285.903 388.272C286.612 388.911 286.99 389.74 287.037 390.76H285.499C285.452 390.145 285.218 389.641 284.796 389.248C284.38 388.85 283.864 388.65 283.249 388.65C282.423 388.65 281.781 388.949 281.324 389.547C280.873 390.139 280.647 390.997 280.647 392.122V392.43C280.647 393.525 280.873 394.369 281.324 394.961C281.775 395.553 282.42 395.849 283.258 395.849ZM290.632 397H289.006V387.49H290.632V397ZM288.874 384.968C288.874 384.704 288.953 384.481 289.111 384.3C289.275 384.118 289.516 384.027 289.832 384.027C290.148 384.027 290.389 384.118 290.553 384.3C290.717 384.481 290.799 384.704 290.799 384.968C290.799 385.231 290.717 385.451 290.553 385.627C290.389 385.803 290.148 385.891 289.832 385.891C289.516 385.891 289.275 385.803 289.111 385.627C288.953 385.451 288.874 385.231 288.874 384.968ZM299.113 397C299.02 396.812 298.943 396.479 298.885 395.998C298.129 396.783 297.227 397.176 296.178 397.176C295.24 397.176 294.47 396.912 293.866 396.385C293.269 395.852 292.97 395.178 292.97 394.363C292.97 393.373 293.345 392.605 294.095 392.061C294.851 391.51 295.911 391.234 297.276 391.234H298.858V390.487C298.858 389.919 298.688 389.468 298.349 389.134C298.009 388.794 297.508 388.624 296.846 388.624C296.266 388.624 295.779 388.771 295.387 389.063C294.994 389.356 294.798 389.711 294.798 390.127H293.163C293.163 389.652 293.33 389.195 293.664 388.756C294.004 388.311 294.461 387.959 295.035 387.701C295.615 387.443 296.251 387.314 296.942 387.314C298.038 387.314 298.896 387.59 299.518 388.141C300.139 388.686 300.461 389.438 300.484 390.399V394.776C300.484 395.649 300.596 396.344 300.818 396.859V397H299.113ZM296.415 395.761C296.925 395.761 297.408 395.629 297.865 395.365C298.322 395.102 298.653 394.759 298.858 394.337V392.386H297.584C295.592 392.386 294.596 392.969 294.596 394.135C294.596 394.645 294.766 395.043 295.105 395.33C295.445 395.617 295.882 395.761 296.415 395.761ZM307.63 388.949C307.384 388.908 307.117 388.888 306.83 388.888C305.764 388.888 305.04 389.342 304.659 390.25V397H303.033V387.49H304.615L304.642 388.589C305.175 387.739 305.931 387.314 306.909 387.314C307.226 387.314 307.466 387.355 307.63 387.438V388.949ZM317.623 391.296C316.176 390.88 315.121 390.37 314.459 389.767C313.803 389.157 313.475 388.407 313.475 387.517C313.475 386.509 313.876 385.677 314.679 385.021C315.487 384.358 316.536 384.027 317.825 384.027C318.704 384.027 319.486 384.197 320.172 384.537C320.863 384.877 321.396 385.346 321.771 385.943C322.152 386.541 322.343 387.194 322.343 387.903H320.646C320.646 387.13 320.4 386.523 319.908 386.084C319.416 385.639 318.722 385.416 317.825 385.416C316.993 385.416 316.343 385.601 315.874 385.97C315.411 386.333 315.18 386.84 315.18 387.49C315.18 388.012 315.399 388.454 315.839 388.817C316.284 389.175 317.037 389.503 318.098 389.802C319.164 390.101 319.996 390.432 320.594 390.795C321.197 391.152 321.643 391.571 321.93 392.052C322.223 392.532 322.369 393.098 322.369 393.748C322.369 394.785 321.965 395.617 321.156 396.244C320.348 396.865 319.267 397.176 317.913 397.176C317.034 397.176 316.214 397.009 315.452 396.675C314.69 396.335 314.102 395.872 313.686 395.286C313.275 394.7 313.07 394.035 313.07 393.291H314.767C314.767 394.064 315.051 394.677 315.619 395.128C316.193 395.573 316.958 395.796 317.913 395.796C318.804 395.796 319.486 395.614 319.961 395.251C320.436 394.888 320.673 394.393 320.673 393.766C320.673 393.139 320.453 392.655 320.014 392.315C319.574 391.97 318.777 391.63 317.623 391.296ZM328.231 397.176C326.942 397.176 325.894 396.754 325.085 395.91C324.276 395.061 323.872 393.927 323.872 392.509V392.21C323.872 391.267 324.051 390.426 324.408 389.688C324.771 388.943 325.275 388.363 325.92 387.947C326.57 387.525 327.273 387.314 328.029 387.314C329.266 387.314 330.227 387.722 330.912 388.536C331.598 389.351 331.94 390.517 331.94 392.034V392.711H325.498C325.521 393.648 325.794 394.407 326.315 394.987C326.843 395.562 327.511 395.849 328.319 395.849C328.894 395.849 329.38 395.731 329.778 395.497C330.177 395.263 330.525 394.952 330.824 394.565L331.817 395.339C331.021 396.563 329.825 397.176 328.231 397.176ZM328.029 388.65C327.373 388.65 326.822 388.891 326.377 389.371C325.932 389.846 325.656 390.514 325.551 391.375H330.314V391.252C330.268 390.426 330.045 389.787 329.646 389.336C329.248 388.879 328.709 388.65 328.029 388.65ZM339.367 394.478C339.367 394.038 339.2 393.698 338.866 393.458C338.538 393.212 337.961 393.001 337.135 392.825C336.314 392.649 335.661 392.438 335.175 392.192C334.694 391.946 334.337 391.653 334.103 391.313C333.874 390.974 333.76 390.569 333.76 390.101C333.76 389.321 334.088 388.662 334.744 388.123C335.406 387.584 336.25 387.314 337.275 387.314C338.354 387.314 339.227 387.593 339.895 388.149C340.568 388.706 340.905 389.418 340.905 390.285H339.271C339.271 389.84 339.08 389.456 338.699 389.134C338.324 388.812 337.85 388.65 337.275 388.65C336.684 388.65 336.221 388.779 335.887 389.037C335.553 389.295 335.386 389.632 335.386 390.048C335.386 390.44 335.541 390.736 335.852 390.936C336.162 391.135 336.722 391.325 337.53 391.507C338.345 391.688 339.004 391.905 339.508 392.157C340.012 392.409 340.384 392.714 340.624 393.071C340.87 393.423 340.993 393.854 340.993 394.363C340.993 395.213 340.653 395.896 339.974 396.411C339.294 396.921 338.412 397.176 337.328 397.176C336.566 397.176 335.893 397.041 335.307 396.771C334.721 396.502 334.261 396.127 333.927 395.646C333.599 395.16 333.435 394.636 333.435 394.073H335.061C335.09 394.618 335.307 395.052 335.711 395.374C336.121 395.69 336.66 395.849 337.328 395.849C337.943 395.849 338.436 395.726 338.805 395.479C339.18 395.228 339.367 394.894 339.367 394.478ZM344.878 397H343.252V387.49H344.878V397ZM343.12 384.968C343.12 384.704 343.199 384.481 343.357 384.3C343.521 384.118 343.762 384.027 344.078 384.027C344.395 384.027 344.635 384.118 344.799 384.3C344.963 384.481 345.045 384.704 345.045 384.968C345.045 385.231 344.963 385.451 344.799 385.627C344.635 385.803 344.395 385.891 344.078 385.891C343.762 385.891 343.521 385.803 343.357 385.627C343.199 385.451 343.12 385.231 343.12 384.968ZM347.058 392.157C347.058 391.226 347.239 390.388 347.603 389.644C347.972 388.899 348.481 388.325 349.132 387.921C349.788 387.517 350.535 387.314 351.373 387.314C352.668 387.314 353.714 387.763 354.511 388.659C355.313 389.556 355.715 390.748 355.715 392.236V392.351C355.715 393.276 355.536 394.108 355.179 394.847C354.827 395.579 354.32 396.15 353.658 396.561C353.002 396.971 352.246 397.176 351.391 397.176C350.102 397.176 349.056 396.728 348.253 395.831C347.456 394.935 347.058 393.748 347.058 392.271V392.157ZM348.692 392.351C348.692 393.405 348.936 394.252 349.422 394.891C349.914 395.529 350.57 395.849 351.391 395.849C352.217 395.849 352.873 395.526 353.359 394.882C353.846 394.231 354.089 393.323 354.089 392.157C354.089 391.114 353.84 390.271 353.342 389.626C352.85 388.976 352.193 388.65 351.373 388.65C350.57 388.65 349.923 388.97 349.431 389.608C348.938 390.247 348.692 391.161 348.692 392.351ZM352.111 383.5H354.08L351.725 386.084H350.415L352.111 383.5ZM359.292 387.49L359.345 388.686C360.071 387.771 361.021 387.314 362.192 387.314C364.202 387.314 365.216 388.448 365.233 390.716V397H363.607V390.707C363.602 390.021 363.443 389.515 363.133 389.187C362.828 388.858 362.351 388.694 361.7 388.694C361.173 388.694 360.71 388.835 360.312 389.116C359.913 389.397 359.603 389.767 359.38 390.224V397H357.754V387.49H359.292Z" fill="black"/>
<path d="M286.961 109V74.875H298.117C301.82 74.875 304.602 75.6406 306.461 77.1719C308.336 78.7031 309.273 80.9688 309.273 83.9688C309.273 85.5625 308.82 86.9766 307.914 88.2109C307.008 89.4297 305.773 90.375 304.211 91.0469C306.055 91.5625 307.508 92.5469 308.57 94C309.648 95.4375 310.188 97.1562 310.188 99.1562C310.188 102.219 309.195 104.625 307.211 106.375C305.227 108.125 302.422 109 298.797 109H286.961ZM291.461 93.0391V105.32H298.891C300.984 105.32 302.633 104.781 303.836 103.703C305.055 102.609 305.664 101.109 305.664 99.2031C305.664 95.0938 303.43 93.0391 298.961 93.0391H291.461ZM291.461 89.4297H298.258C300.227 89.4297 301.797 88.9375 302.969 87.9531C304.156 86.9688 304.75 85.6328 304.75 83.9453C304.75 82.0703 304.203 80.7109 303.109 79.8672C302.016 79.0078 300.352 78.5781 298.117 78.5781H291.461V89.4297ZM320.898 109H316.562V83.6406H320.898V109ZM316.211 76.9141C316.211 76.2109 316.422 75.6172 316.844 75.1328C317.281 74.6484 317.922 74.4062 318.766 74.4062C319.609 74.4062 320.25 74.6484 320.688 75.1328C321.125 75.6172 321.344 76.2109 321.344 76.9141C321.344 77.6172 321.125 78.2031 320.688 78.6719C320.25 79.1406 319.609 79.375 318.766 79.375C317.922 79.375 317.281 79.1406 316.844 78.6719C316.422 78.2031 316.211 77.6172 316.211 76.9141ZM338.383 109.469C334.945 109.469 332.148 108.344 329.992 106.094C327.836 103.828 326.758 100.805 326.758 97.0234V96.2266C326.758 93.7109 327.234 91.4688 328.188 89.5C329.156 87.5156 330.5 85.9688 332.219 84.8594C333.953 83.7344 335.828 83.1719 337.844 83.1719C341.141 83.1719 343.703 84.2578 345.531 86.4297C347.359 88.6016 348.273 91.7109 348.273 95.7578V97.5625H331.094C331.156 100.062 331.883 102.086 333.273 103.633C334.68 105.164 336.461 105.93 338.617 105.93C340.148 105.93 341.445 105.617 342.508 104.992C343.57 104.367 344.5 103.539 345.297 102.508L347.945 104.57C345.82 107.836 342.633 109.469 338.383 109.469ZM337.844 86.7344C336.094 86.7344 334.625 87.375 333.438 88.6562C332.25 89.9219 331.516 91.7031 331.234 94H343.938V93.6719C343.812 91.4688 343.219 89.7656 342.156 88.5625C341.094 87.3438 339.656 86.7344 337.844 86.7344ZM357.414 83.6406L357.555 86.8281C359.492 84.3906 362.023 83.1719 365.148 83.1719C370.508 83.1719 373.211 86.1953 373.258 92.2422V109H368.922V92.2188C368.906 90.3906 368.484 89.0391 367.656 88.1641C366.844 87.2891 365.57 86.8516 363.836 86.8516C362.43 86.8516 361.195 87.2266 360.133 87.9766C359.07 88.7266 358.242 89.7109 357.648 90.9297V109H353.312V83.6406H357.414ZM388.164 103.117L394.445 83.6406H398.875L389.781 109H386.477L377.289 83.6406H381.719L388.164 103.117ZM413.242 109.469C409.805 109.469 407.008 108.344 404.852 106.094C402.695 103.828 401.617 100.805 401.617 97.0234V96.2266C401.617 93.7109 402.094 91.4688 403.047 89.5C404.016 87.5156 405.359 85.9688 407.078 84.8594C408.812 83.7344 410.688 83.1719 412.703 83.1719C416 83.1719 418.562 84.2578 420.391 86.4297C422.219 88.6016 423.133 91.7109 423.133 95.7578V97.5625H405.953C406.016 100.062 406.742 102.086 408.133 103.633C409.539 105.164 411.32 105.93 413.477 105.93C415.008 105.93 416.305 105.617 417.367 104.992C418.43 104.367 419.359 103.539 420.156 102.508L422.805 104.57C420.68 107.836 417.492 109.469 413.242 109.469ZM412.703 86.7344C410.953 86.7344 409.484 87.375 408.297 88.6562C407.109 89.9219 406.375 91.7031 406.094 94H418.797V93.6719C418.672 91.4688 418.078 89.7656 417.016 88.5625C415.953 87.3438 414.516 86.7344 412.703 86.7344ZM432.273 83.6406L432.414 86.8281C434.352 84.3906 436.883 83.1719 440.008 83.1719C445.367 83.1719 448.07 86.1953 448.117 92.2422V109H443.781V92.2188C443.766 90.3906 443.344 89.0391 442.516 88.1641C441.703 87.2891 440.43 86.8516 438.695 86.8516C437.289 86.8516 436.055 87.2266 434.992 87.9766C433.93 88.7266 433.102 89.7109 432.508 90.9297V109H428.172V83.6406H432.273ZM459.367 109H455.031V83.6406H459.367V109ZM454.68 76.9141C454.68 76.2109 454.891 75.6172 455.312 75.1328C455.75 74.6484 456.391 74.4062 457.234 74.4062C458.078 74.4062 458.719 74.6484 459.156 75.1328C459.594 75.6172 459.812 76.2109 459.812 76.9141C459.812 77.6172 459.594 78.2031 459.156 78.6719C458.719 79.1406 458.078 79.375 457.234 79.375C456.391 79.375 455.75 79.1406 455.312 78.6719C454.891 78.2031 454.68 77.6172 454.68 76.9141ZM465.273 96.1094C465.273 92.2188 466.195 89.0938 468.039 86.7344C469.883 84.3594 472.297 83.1719 475.281 83.1719C478.25 83.1719 480.602 84.1875 482.336 86.2188V73H486.672V109H482.688L482.477 106.281C480.742 108.406 478.328 109.469 475.234 109.469C472.297 109.469 469.898 108.266 468.039 105.859C466.195 103.453 465.273 100.312 465.273 96.4375V96.1094ZM469.609 96.6016C469.609 99.4766 470.203 101.727 471.391 103.352C472.578 104.977 474.219 105.789 476.312 105.789C479.062 105.789 481.07 104.555 482.336 102.086V90.4375C481.039 88.0469 479.047 86.8516 476.359 86.8516C474.234 86.8516 472.578 87.6719 471.391 89.3125C470.203 90.9531 469.609 93.3828 469.609 96.6016ZM492.273 96.0859C492.273 93.6016 492.758 91.3672 493.727 89.3828C494.711 87.3984 496.07 85.8672 497.805 84.7891C499.555 83.7109 501.547 83.1719 503.781 83.1719C507.234 83.1719 510.023 84.3672 512.148 86.7578C514.289 89.1484 515.359 92.3281 515.359 96.2969V96.6016C515.359 99.0703 514.883 101.289 513.93 103.258C512.992 105.211 511.641 106.734 509.875 107.828C508.125 108.922 506.109 109.469 503.828 109.469C500.391 109.469 497.602 108.273 495.461 105.883C493.336 103.492 492.273 100.328 492.273 96.3906V96.0859ZM496.633 96.6016C496.633 99.4141 497.281 101.672 498.578 103.375C499.891 105.078 501.641 105.93 503.828 105.93C506.031 105.93 507.781 105.07 509.078 103.352C510.375 101.617 511.023 99.1953 511.023 96.0859C511.023 93.3047 510.359 91.0547 509.031 89.3359C507.719 87.6016 505.969 86.7344 503.781 86.7344C501.641 86.7344 499.914 87.5859 498.602 89.2891C497.289 90.9922 496.633 93.4297 496.633 96.6016Z" fill="black"/>
</svg>
